<?xml version="1.0" encoding="utf-8"?>
<!-- Generator: Adobe Illustrator 22.0.0, SVG Export Plug-In . SVG Version: 6.00 Build 0)  -->
<svg version="1.1" xmlns="http://www.w3.org/2000/svg" xmlns:xlink="http://www.w3.org/1999/xlink" x="0px" y="0px"
	 viewBox="0 0 750 489.8" style="enable-background:new 0 0 750 489.8;" xml:space="preserve">
<style type="text/css">
	.st0{fill:#FFFFFF;}
	.st1{fill:#98C4F9;}
	.st2{opacity:0.25;}
	.st3{fill:url(#SVGID_1_);}
	.st4{fill:#FF6643;}
	.st5{fill:#092533;}
	.st6{fill:url(#SVGID_2_);}
	.st7{fill:url(#SVGID_3_);}
	.st8{fill:#4D5AFF;}
	.st9{fill:url(#SVGID_4_);}
	.st10{opacity:0.25;fill:none;stroke:#FFFFFF;stroke-width:0.4597;stroke-miterlimit:10;}
	.st11{fill:#6C5BE8;}
	.st12{fill:#FF9280;}
	.st13{fill:#350909;}
	.st14{fill:url(#SVGID_5_);}
	.st15{fill:url(#SVGID_6_);}
	.st16{fill:#12006D;}
	.st17{fill:url(#SVGID_7_);}
	.st18{fill:none;stroke:#092533;stroke-width:0.9195;stroke-miterlimit:10;}
	.st19{fill:url(#SVGID_8_);}
	.st20{fill:url(#SVGID_9_);}
	.st21{fill:url(#SVGID_10_);}
	.st22{fill:url(#SVGID_11_);}
	.st23{fill:url(#SVGID_12_);}
	.st24{fill:#FF7900;}
	.st25{fill:#C64200;}
	.st26{fill:url(#SVGID_13_);}
	.st27{fill:url(#SVGID_14_);}
	.st28{fill:#FFB000;}
	.st29{opacity:0.25;fill:none;stroke:#000000;stroke-width:0.4597;stroke-miterlimit:10;}
	.st30{fill:url(#SVGID_15_);}
	.st31{fill:url(#SVGID_16_);}
	.st32{fill:url(#SVGID_17_);}
	.st33{fill:url(#SVGID_18_);}
</style>
<g id="BACKGROUND">
	<rect class="st0" width="750" height="500"/>
</g>
<g id="OBJECTS">
	<g>
		<g>
			<path class="st1" d="M568.5,337l-10.1-29.8l-16.8,5.8l-34.4-101.5l-38.3,13.1l0.1,0.3l-12.4,53.7l-17.6,76.4l10.3,22.8l36.2-12.4
				l13.2-4.5l14.7-5l12,35.4l38.3-13.1l-12-35.4L568.5,337z M498.8,327.7l-8.7,3l-16.7,5.7l11.4-56.8l1.1-4.7l17.4,51.3L498.8,327.7
				z"/>
			<polygon class="st2" points="551.7,342.8 563.7,378.2 539.3,367.7 500.2,226.2 485.9,274.9 479.3,302.5 456.7,278.7 469,225 
				468.9,224.7 507.2,211.5 541.6,313.1 558.5,307.3 568.5,337 			"/>
			<path class="st2" d="M498.7,361l-13.2,4.5l1.9-27.3v-5l2.7-2.5l1.7-1.6l7-1.4C498.8,327.7,498.4,347.8,498.7,361z"/>
			<linearGradient id="SVGID_1_" gradientUnits="userSpaceOnUse" x1="485.9806" y1="297.3974" x2="494.6599" y2="436.2679">
				<stop  offset="0" style="stop-color:#FFB000"/>
				<stop  offset="1" style="stop-color:#FF7900"/>
			</linearGradient>
			<path class="st3" d="M498.8,327.7c0,0-3.3-4.2-9-3.7c-5.7,0.5-9,2.7-9.1,8.7c-0.2,6,1.2,36.4-0.1,48.5
				c-1.3,12.1,6.9,13.3,7.3,4.3c0.5-8.9-3-36.9-0.4-41.5c2.6-4.6,1,5.1,3.7,8.2c2.7,3.1,5.6-2.4,2.7-9.9S498.8,327.7,498.8,327.7z"
				/>
		</g>
		<g>
			<g>
				<path class="st4" d="M147.8,282.7c-1,0-1.7-0.1-2-0.2c-0.4-0.2-1.5-0.6-11.3-18.2l1.8-1c3.7,6.6,9.2,16.1,10.4,17.3
					c1.1,0.2,6.9-0.2,12.1-0.8l0.2,2C155.7,282.3,150.7,282.7,147.8,282.7z"/>
			</g>
			<path class="st5" d="M183.3,291.2v0.6c0,0-0.5,11.2-8.8,10.7c0,0,0,0-0.1,0c-5.1-0.3-11.5-2.7-15.7-4.5c-2.7-1.1-4.5-2-4.7-2
				c-0.5,0.1,6.3,28.7,6.2,30.3c0,0.2-0.1,0.5-0.1,0.7c-0.5,1.5-2.2,3.4-3.2,3.6c-0.1,0-0.3-0.2-0.6-0.6
				c-3.1-3.9-15.3-26.3-15.6-33.6c-0.4-8,3.7-12.9,9.2-13.8c4-0.7,15.9,1,21.8,1.9c2.1,0.3,3.5,0.6,3.5,0.6L183.3,291.2z"/>
			<g>
				<path class="st2" d="M160.1,326.3c0,0.2-0.1,0.5-0.1,0.7c-0.5,1.5-2.2,3.4-3.2,3.6c-0.1,0-0.3-0.2-0.6-0.6
					c4.3-6.2-7-36.2-4.5-36.3c1.2,0,3.9,2,7,4.3c-2.7-1.1-4.5-2-4.7-2C153.4,296.1,160.2,324.7,160.1,326.3z"/>
				<path class="st2" d="M183.3,291.2v0.6c0,0-0.5,11.2-8.8,10.7c1.6-1.3,1.9-3.6,1.8-6.4c-0.1-3.2-3.1-8.8-4.8-11.7
					c2.1,0.3,3.5,0.6,3.5,0.6L183.3,291.2z"/>
			</g>
			<path class="st5" d="M165.6,254.6c-0.3,0.4-0.5,0.8-0.5,1.1c0,0,0,0,0-0.1c-0.1-0.2-0.4-0.8-0.9-1.5c-0.8-1.2-1.8-2.6-2.4-2.8
				c-1-0.3-3.7,3.2-7.4,3.4c-0.2,0-0.5,0-0.7,0c-4-0.2-8.3-5.9-4.8-12.7c1.2,2.5,3.6,2.5,3.6,2.5s-1.5-0.3-1.6-2.2
				c4.4,0.8,6.6-2.5,10.4-1.3c3.8,1.2,3.5,3.5,3.5,3.5s2.9-1.1,3.8,2.5C169.4,250,166.7,252.9,165.6,254.6z"/>
			<linearGradient id="SVGID_2_" gradientUnits="userSpaceOnUse" x1="159.3193" y1="259.8227" x2="160.3136" y2="250.4212">
				<stop  offset="0" style="stop-color:#FFC5AE"/>
				<stop  offset="1" style="stop-color:#EA8B6A"/>
			</linearGradient>
			<path class="st6" d="M165.1,255.6c-0.3,0.9-0.7,1.9-1.4,2.7c-0.8,1-1.9,1.7-3.1,1.7c-2.6-0.1-5.1-3.5-6.2-5.3
				c3.6-0.3,6.3-3.7,7.4-3.4c0.6,0.2,1.7,1.6,2.4,2.8C164.7,254.9,165,255.5,165.1,255.6z"/>
			<linearGradient id="SVGID_3_" gradientUnits="userSpaceOnUse" x1="171.7739" y1="256.6802" x2="163.1487" y2="257.3091">
				<stop  offset="0" style="stop-color:#FFC5AE"/>
				<stop  offset="1" style="stop-color:#EA8B6A"/>
			</linearGradient>
			<path class="st7" d="M168.8,256c0,0-1.9,4.4-2.6,3.4c-0.4-0.5-1.5-0.9-2.5-1.1c0.7-0.8,1.1-1.8,1.4-2.7c0,0,0,0.1,0,0.1
				c0-0.3,0.2-0.6,0.5-1.1C167,255.7,168.8,256,168.8,256z"/>
			<path class="st8" d="M182.3,293.2c-3.1-0.5-11.3-9.5-11.3-13.4c0-0.5-0.1-1.2-0.2-1.8c-0.6-4-3-10-3.9-14.2
				c-1.1-4.9,0.5-6.7,0.5-6.7c3.8-6.5,12.3,6.4,17.1,16.7l0,0c1.6,3.5,2.7,6.7,2.8,8.9C187.7,290.1,185.4,293.6,182.3,293.2z"/>
			<path class="st2" d="M182.3,293.2c-3.1-0.5-11.3-9.5-11.3-13.4c0-0.5-0.1-1.2-0.2-1.8l0-1.7l3-15.8c0,0,4.1,4.9,4.8,13.8
				c0.7,8.9,10.3,10.8,5.9-0.4c1.6,3.5,2.7,6.7,2.8,8.9C187.7,290.1,185.4,293.6,182.3,293.2z"/>
			<path class="st8" d="M175.9,273.7c-0.1,0.1-0.2,0.1-0.4,0.2c-1.4,0.4-5.5,0.3-7.3,0c-0.3-0.1-0.5-0.1-0.6-0.2
				c-1.1-0.5,0-1.9-0.4-4.2c-0.4-2.4-1.3-9.2,2.2-11.3c3.6-2.2,6.3,6.1,6.4,10.3C176,272.6,176.7,273,175.9,273.7z"/>
			<linearGradient id="SVGID_4_" gradientUnits="userSpaceOnUse" x1="160.4653" y1="292.1144" x2="168.417" y2="263.5605">
				<stop  offset="0" style="stop-color:#FFC5AE"/>
				<stop  offset="1" style="stop-color:#EA8B6A"/>
			</linearGradient>
			<path class="st9" d="M175.5,273.8c0,0-0.2,10.2-2.1,15c0,0,0,0,0,0c-0.6,1.5-1.4,2.5-2.4,2.4c-4.2-0.1-13.6-10.1-14.4-10.4
				c-0.9-0.4-5.1,0.3-5-0.4c0.1-0.6,1.8-2,3.6-2.7c1.8-0.7,1.5-0.3,13,5.1c-0.2-1-0.1-5.5,0-8c0-0.4,0-0.7,0-1
				C169.9,274.2,174.1,274.2,175.5,273.8z"/>
			<path class="st8" d="M163.6,333.1c0.3,1.8-11.8,14.2-11.2,10.9c0.6-3.3,4.4-13.6,4.4-13.6c1-0.2,2.7-2,3.2-3.6
				C161,328.7,163.3,331.6,163.6,333.1z"/>
			<path class="st10" d="M174.5,295.1c0,0-19.4-3.7-23.2-1.9c-3.8,1.8,7,32.6,7,32.6"/>
			<path class="st2" d="M173.4,288.8c0.4-2,0.6-8-0.4-10.3c-0.7-1.6-3.2-2.9-4.8-3.7c0-0.4,0-0.7,0-1c1.7,0.3,5.8,0.4,7.3,0
				C175.5,273.8,175.3,284,173.4,288.8z"/>
		</g>
		<g>
			<path class="st11" d="M487,220.1c-0.4,1.5-1,3.5-2.1,6.1c-1.5,3.8-3.6,8.9-6.9,16c-0.1,3.6-1.2,26.8-1.5,32.1
				c0,0.6-0.1,1-0.1,1.1c0,0.2-0.9,0.7-1.8,0.9c-0.9,0.2-1.8,0.3-2.2-0.3c-0.8-1.1-6.3-23-6.6-28.1c-0.3-5.2-0.5-4,5.7-24.5
				c-1.5,0.7-11.4,0.5-11.4,0.5s1.8,25.1,1.8,25.3c0,0,0,0.1-0.1,0.2c-0.1,0.3-0.5,1.1-0.9,1.5c-0.2,0.2-0.4,0.3-0.5,0.2
				c-0.1,0-0.3-0.2-0.7-0.6c-1.9-2-7.1-8.9-9.9-15.2c-3.3-7.5-4.1-12.7-1-18c3.1-5.2,19.1-5.6,19.1-5.6c1,0.3,3.3,0.6,5.6,1.1
				c0.7,0.2,1.4,0.3,2,0.6c3.5,1.2,10.1,2.6,11.6,1.8C487.6,216.2,487.6,217.5,487,220.1z"/>
			<path class="st4" d="M500.2,202.6c-0.6,0.4-7.9,0.1-12.9-1.8c0,0.9,0.1,2.3,0.3,3.8c0.2,2.5,0.4,5.4,0.4,7.5
				c0,1.5-0.2,2.7-0.6,2.9c0,0,0,0,0,0c-0.8,0.4-3,0.2-5.4-0.2c-1.6-0.3-3.3-0.7-4.7-1.1c-0.5-0.2-1-0.3-1.4-0.5
				c-2.8-0.9-6.3-1.3-7.6-1.7c-0.3-0.1-0.5-0.2-0.5-0.3c0-0.5,1.2-1.6,1.8-2.8c0.1-0.1,0.2-0.4,0.3-0.6c0.5-1.2,1.2-3.6,1.6-5.1
				c0.2-0.9,0.3-1.5,0.1-1.4c-0.6,0.3-4,6.8-4.4,6.8c-0.1,0-0.8-0.4-1.7-1c-1.4-0.9-3.1-2.3-3.2-3c0-0.1,0-0.2,0.1-0.2
				c0.8-0.8,7-11.3,9.3-13.5c1.1-1.1,2.3-1.7,3.3-2.1c1.1-0.4,2-0.5,2-0.5c1.3,0,2.7,0.1,4,0.5c4.5,1.1,8.5,4,10.9,5.4
				c3,1.8,5.1,1.3,5.8,1.8C498.1,196,500.8,202.2,500.2,202.6z"/>
			<path class="st12" d="M487.9,212.2c-4.1,0.1-13.4-0.3-18.3-4.3c0.5-1.2,1.2-3.6,1.6-5.1c0,0,9.7,3,16.3,1.8
				C487.7,207.1,487.9,210,487.9,212.2z"/>
			<path class="st2" d="M480.7,188.5c-0.2,1.7-0.8,3.6-2.6,3.5c-2.6-0.2-3.2-2.4-3.3-3.4c1.1-0.4,2-0.5,2-0.5
				C478,188,479.3,188.1,480.7,188.5z"/>
			<path class="st13" d="M479.5,184.7c0,0-0.4-1.9-1.4-2.8c-0.7,1.2-3.5,1.8-5.7,2c-1,0.1-1.9,0.1-2.4-0.1c-1.5-6,3.2-8.6,5.9-8.8
				c2.6-0.2,5,1.8,4.3,4.8C482.7,182.2,479.5,184.7,479.5,184.7z"/>
			<linearGradient id="SVGID_5_" gradientUnits="userSpaceOnUse" x1="475.8685" y1="187.3589" x2="476.2301" y2="179.0872">
				<stop  offset="0" style="stop-color:#FFC5AE"/>
				<stop  offset="1" style="stop-color:#EA8B6A"/>
			</linearGradient>
			<path class="st14" d="M479.5,184.7c-0.1,0.4-0.3,1.1-0.7,1.7h0c-0.6,1.1-1.6,2-3.3,1.3c-0.1,0-0.1-0.1-0.2-0.1
				c-1.5-0.7-2.2-2-2.6-3c-0.1-0.3-0.2-0.6-0.3-0.9c2.2-0.2,5-0.8,5.7-2c0,0,0.1,0.1,0.1,0.1C479.1,183,479.5,184.7,479.5,184.7z"/>
			<linearGradient id="SVGID_6_" gradientUnits="userSpaceOnUse" x1="477.4663" y1="190.8763" x2="477.1951" y2="184.9993">
				<stop  offset="0" style="stop-color:#FFC5AE"/>
				<stop  offset="1" style="stop-color:#EA8B6A"/>
			</linearGradient>
			<path class="st15" d="M479.3,189.3c-0.3,1.7-3,1.6-3.3,0.5c-0.2-0.6-0.3-1.1-0.5-1.5c-0.1-0.4-0.2-0.6-0.2-0.6v0
				c0.1,0,0.1,0.1,0.2,0.1c1.7,0.7,2.7-0.3,3.3-1.3h0c-0.2,0.4,0.3,0.8,0.5,1.7C479.4,188.5,479.4,188.9,479.3,189.3z"/>
			<path class="st16" d="M465.1,255.6c-0.3,2.1-11,10.2-10.8,8.8c0.2-1.4,5.6-13.9,5.6-13.9c0.3,0.4,0.6,0.6,0.7,0.6
				c0.5,0.2,1.2-1.2,1.4-1.7C463.4,251.1,465.3,253.7,465.1,255.6z"/>
			<path class="st16" d="M472.4,293c-2.5-5.4,0-16.9,0-16.9c0.8,1.1,3.9-0.2,4-0.6c0-0.1,0-0.4,0.1-1.1c0,0,0.4,5.5,0.9,10.2
				C477.8,289.2,475,298.4,472.4,293z"/>
			<path class="st2" d="M471.6,223.4c-1.5,0.7-11.4,0.5-11.4,0.5s1.8,25.1,1.8,25.3c0,0,0,0.1-0.1,0.2c-0.1,0.3-0.5,1.1-0.9,1.5
				c-1.8-8.6-5.5-25.1-2.6-27.9c3.7-3.6,13.8-4.6,13.9-3.8C472.6,219.9,471.6,223.4,471.6,223.4z"/>
			<linearGradient id="SVGID_7_" gradientUnits="userSpaceOnUse" x1="459.4301" y1="235.2337" x2="465.9391" y2="192.9255">
				<stop  offset="0" style="stop-color:#FFC5AE"/>
				<stop  offset="1" style="stop-color:#EA8B6A"/>
			</linearGradient>
			<path class="st17" d="M464.5,211.5c-0.1,0.3-0.2,0.6-0.2,0.7c0.2,0.8-0.9,11.4-0.5,12.5c0.4,1.1,0.7,4.5,0.4,6.7
				c-0.2,2.2-4.7,3.5-4.7,1.6c0-1.9,0.5-6.3,0.7-8c0.2-1.7-1.5-13.9-1-15.6c0.3-1.1,1.4-3,2.2-4.1c0.4-0.6,0.7-1.1,0.7-1.1
				c0.1,1.1,4.5,4,4.8,4C466.9,208.3,465.1,210.3,464.5,211.5z"/>
			<path class="st2" d="M487,220.1c-2-0.1-4.2-1-5.8-2.6c-1.8-1.8-4.8-3.5-7.5-4.8c0.7,0.2,1.4,0.3,2,0.6c3.5,1.2,10.1,2.6,11.6,1.8
				C487.6,216.2,487.6,217.5,487,220.1z"/>
			<path class="st2" d="M484.9,226.2c-1.5,3.8-3.6,8.9-6.9,16c-0.1,3.6-1.2,26.8-1.5,32.1c0,0.6-0.1,1-0.1,1.1
				c0,0.2-0.9,0.7-1.8,0.9c0.2-7.8-0.1-24.8,1.2-29.8C477.4,240.4,484.4,227,484.9,226.2z"/>
			<path class="st2" d="M477.1,213.7c-0.5-0.2-1-0.3-1.4-0.5c-2.8-0.9-6.3-1.3-7.6-1.7c-0.3-0.1-0.5-0.2-0.5-0.3
				c0-0.5,1.2-1.6,1.8-2.8c0.6-1.2,2.6-7.4,2-7.1c-0.6,0.3-4,6.8-4.4,6.8c-0.1,0-0.8-0.4-1.7-1c0.1-0.1,0.2-0.3,0.3-0.5
				c2.2-3.2,5.7-7.2,6.3-10.6c0.5-2.5,1.2-1.1,1.1,2.2C472.7,201.4,472.6,210.3,477.1,213.7z"/>
			<path class="st2" d="M487.3,215.1C487.3,215.1,487.3,215.1,487.3,215.1c-0.8,0.5-3,0.2-5.5-0.2c4.4-4.4,2-16.4,2.7-15.8
				c0.8,0.7,2.8,1.7,2.8,1.7C487.4,204,488.7,214.2,487.3,215.1z"/>
			<path class="st2" d="M466.9,208.3c0,0-1.8,2-2.4,3.2c0-0.3,0-0.5-0.1-0.7c-0.1-1.3-2.1-4.1-3.1-5.4c0.4-0.6,0.7-1.1,0.7-1.1
				C462.1,205.4,466.5,208.3,466.9,208.3z"/>
			<path class="st2" d="M478.3,182c-1.1,2.4-4.2,2.7-5.6,2.7c-0.1-0.3-0.2-0.6-0.3-0.9c2.2-0.2,5-0.8,5.7-2
				C478.2,181.9,478.3,182,478.3,182z"/>
			<path class="st2" d="M479.3,188.2c-0.2,0.2-0.4,0.3-0.8,0.3c-1.4,0.3-2.5,0-3-0.2c-0.1-0.4-0.2-0.6-0.2-0.6v0
				c0.1,0,0.1,0.1,0.2,0.1c1.7,0.7,2.7-0.3,3.3-1.3h0C478.6,186.8,479.1,187.3,479.3,188.2z"/>
			<line class="st18" x1="493.6" y1="1" x2="493.6" y2="226.2"/>
			<linearGradient id="SVGID_8_" gradientUnits="userSpaceOnUse" x1="495.6197" y1="184.2061" x2="500.6802" y2="210.8945">
				<stop  offset="0" style="stop-color:#FFC5AE"/>
				<stop  offset="1" style="stop-color:#EA8B6A"/>
			</linearGradient>
			<path class="st19" d="M503.1,199.4c0,0.1,0,0.1,0,0.2c-0.6,2.7-2.8,3-3.2,2.8c-0.4-0.2-1.5-1.4-2.4-5.8c0-0.1,0-0.2-0.1-0.3
				c0,0-2-5.3-3-7.8c-2.4-1.4-2.8-0.8-3.1-2.5c-0.3-1.6,0.7-3.7,1.3-4c0.6-0.3,3.3,2.2,3.7,3.2C496.6,186.1,503.6,196.5,503.1,199.4
				z"/>
			<path class="st2" d="M503,199.6c-0.6,2.7-2.8,3-3.2,2.8c-0.4-0.2-1.5-1.4-2.4-5.8c0.6,1.2,1.5,2.8,2.5,3.5
				C501.1,200.7,502.3,200.5,503,199.6z"/>
		</g>
		<g>
			<path class="st4" d="M423.7,342l-5.8-29.7c-4.3-22-12.5-38-24.7-48.1c-12.2-10.1-27.3-13.4-45.3-9.8c-18,3.5-30.7,12.3-38.2,26.1
				c-7.5,13.9-9.1,31.9-4.8,53.9l5.8,29.8c4.3,21.9,12.5,37.9,24.7,47.9c5.2,4.3,10.8,7.3,17,9.1c8.5,2.5,17.9,2.7,28.3,0.7
				c5.4-1.1,10.3-2.6,14.8-4.6c10.3-4.6,18.1-11.8,23.3-21.5C426.4,382,428,364,423.7,342z M387.6,381.8c-2,6.1-6.2,9.8-12.5,11
				c-6.6,1.3-12-0.6-16.1-5.6c-2.8-3.4-5.2-8.5-7.2-15.3c0,0,0,0,0,0c0,0,0,0,0,0c-0.9-3.1-1.8-6.6-2.5-10.5l-8.1-41.7
				c-1.9-10.9-1.9-19.4,0-25.4c1.9-6,6.1-9.6,12.5-10.8c4.9-1,9.2-0.1,12.7,2.5h0c1.2,0.9,2.4,2,3.4,3.3c4.2,5.2,7.4,13.7,9.7,25.4
				l7.8,40.3C389.5,366.8,389.6,375.7,387.6,381.8z"/>
			<path class="st2" d="M390.5,387.4c1.7,2.6,3.9,20.1,5,30c-4.5,2-9.4,3.5-14.8,4.6c-10.4,2-19.9,1.8-28.3-0.7
				c0.3-0.8,0.7-1.6,0.9-2.5c5.3-16.3-1.3-45.6-1.6-46.9c2,6.8,4.4,11.9,7.2,15.3c4.1,5,9.5,6.9,16.1,5.6c6.4-1.3,10.6-4.9,12.5-11
				c2-6.1,1.9-15-0.3-26.7l-7.8-40.3c-2.3-11.7-5.5-20.2-9.7-25.4c-1.1-1.3-2.2-2.4-3.4-3.3c12.7,2.5,23.1,42.2,27.4,61.4
				C398.1,366.6,398.4,375.5,390.5,387.4z"/>
			<path class="st11" d="M354.5,379.7c0,0,0.8,2.2,5.2,3.4c4.3,1.2,8.4-5.6,11.3-3.4c2.9,2.2,7.5,11.2,11.5,9.8
				c4-1.4,5.2,20.3,3.3,22.7c-1.9,2.4-3.3-17.1-8.4-16.5c-5.1,0.6-1.2,15.3-4.1,17.9c-2.9,2.7-1.7-6.5-4.8-8.2
				c-3.1-1.7,3.4,73.8-1.4,75c-4.8,1.2-7.9-3.4-6-19.5c1.9-16.2-0.5-71.8-3.4-74.7C354.9,383.4,355.1,382.8,354.5,379.7z"/>
		</g>
		<g>
			<line class="st18" x1="353.4" y1="1" x2="353.4" y2="264.3"/>
			<g>
				<path class="st16" d="M415.5,162.5c0,0-3.8-10.5-3.5-11.3c0.3-0.8,4.5-2.4,4.8-1.9c0.3,0.5,3,8.6,2.5,9.2
					C418.9,159,415.5,162.5,415.5,162.5z"/>
				<linearGradient id="SVGID_9_" gradientUnits="userSpaceOnUse" x1="352.9508" y1="144.8129" x2="356.1151" y2="151.5369">
					<stop  offset="0" style="stop-color:#FFC5AE"/>
					<stop  offset="1" style="stop-color:#EA8B6A"/>
				</linearGradient>
				<path class="st20" d="M352,148.6c0,0,2.3,1,3.4,3.5c1,2.5,0.6-6.6,0.6-6.6l-1.1-1L352,148.6z"/>
				<linearGradient id="SVGID_10_" gradientUnits="userSpaceOnUse" x1="348.1757" y1="144.6586" x2="356.0142" y2="147.9471">
					<stop  offset="0" style="stop-color:#FFC5AE"/>
					<stop  offset="1" style="stop-color:#EA8B6A"/>
				</linearGradient>
				<path class="st21" d="M350.8,148.6c0,0,2.9,2.2,3.4,2.3c0.5,0.1,1.4-5.6,1-6.5c-0.4-0.9-2-1.8-3-1.2
					C351.2,143.8,350.3,148.3,350.8,148.6z"/>
				<linearGradient id="SVGID_11_" gradientUnits="userSpaceOnUse" x1="352.6552" y1="142.1262" x2="357.7139" y2="152.8757">
					<stop  offset="0" style="stop-color:#FFC5AE"/>
					<stop  offset="1" style="stop-color:#EA8B6A"/>
				</linearGradient>
				<path class="st22" d="M358.6,149.3c0,0-2.3-5.4-3.3-6.4c-1-0.9-2.9,0.3-3,0.8c-0.1,0.5,2.3,0.9,3,1.7c0.8,0.8-1.3,6.8,0.7,9
					C358,156.4,358.6,149.3,358.6,149.3z"/>
				<linearGradient id="SVGID_12_" gradientUnits="userSpaceOnUse" x1="424.3328" y1="152.78" x2="409.9877" y2="169.8317">
					<stop  offset="0" style="stop-color:#FFC5AE"/>
					<stop  offset="1" style="stop-color:#EA8B6A"/>
				</linearGradient>
				<path class="st23" d="M412.7,163.7c0,0,2.1-1.1,2.5-1.7c0.4-0.6-0.4-2.8,0.9-4.8c1.3-2,4.1-1.4,4.8,1c0.7,2.4-1.1,5.5-1.9,6.5
					c-0.8,0.9-6.3,4.9-6.3,4.9"/>
				<path class="st24" d="M414.1,168.4c-0.1,0.4-0.4,1-1.1,1.8c-2.6,3.1-9.8,9.1-22.9,16c-0.3,1.1-0.5,2.1-0.6,3.2
					c-0.5,3.4-0.5,6.9-0.3,10c0,0.8,0.1,1.6,0.1,2.3c0.2,3.3,0.6,6,0.5,7.6c0,0.7-0.2,1.2-0.4,1.4c-0.3,0.3-0.6,0.5-0.9,0.7
					c-6.5,4.2-18.3-2.1-20.3-4c-0.2-0.1-0.2-0.3-0.3-0.4c-0.3-1.3,1-2.6,1.7-4.8c0.1-0.4,0.2-1.2,0.4-2.3c0.3-3.3,0.6-9.3,0.7-13.8
					c0.1-2.9,0-5.1-0.1-5.7c0,0,0,0,0,0c-0.4-1.5-11.3-18.1-14.5-23.9c-0.6-1.1-0.9-1.8-0.9-2c0.1-1.3,2.6-6,3.2-6
					c0.1,0,0.4,0.4,0.9,1.1c2.5,3.5,9.3,14.2,10.6,15.6c1.2,1.3,7.1,7.6,9.7,10.3c0.7,0.8,1.2,1.2,1.2,1.2c1.4,0,2.8-0.2,4.2-0.4
					c12.3-1.9,24.3-10.5,27.4-12.9c0.5-0.4,0.8-0.6,0.8-0.6S414.4,166.7,414.1,168.4z"/>
				<path class="st25" d="M383.6,182.2c-4.2,0.7-4.2-4.8-4-6.7c0.7,0.8,1.2,1.2,1.2,1.2c1.4,0,2.8-0.2,4.2-0.4
					C385.4,178.5,385,182,383.6,182.2z"/>
				<path class="st16" d="M387.8,170.5c-0.8,0.5-1.9,0.7-3.2,0.3c-1-0.3-2.3-0.8-3.7-1.8c0,0-1.1,1.4-1.2,3.8
					c-3-2.6-3.7-5.2-1.2-6.1c-1-4.5,1.2-5.5,4.8-5.7c3.7-0.2,4.5,3.6,6.7,3.5C390.2,166.5,389.7,169.3,387.8,170.5z"/>
				<linearGradient id="SVGID_13_" gradientUnits="userSpaceOnUse" x1="384.3622" y1="178.8082" x2="382.8256" y2="160.9111">
					<stop  offset="0" style="stop-color:#FFC5AE"/>
					<stop  offset="1" style="stop-color:#EA8B6A"/>
				</linearGradient>
				<path class="st26" d="M387.8,170.5c0,0.4-0.1,0.8-0.2,1.2c-0.5,2.6-1.8,6.3-3.7,6.1c-0.1,0-0.2,0-0.3-0.1
					c-1.7-0.6-2.8-2.3-3.4-3.5c-0.4-0.8-0.5-1.4-0.5-1.4c0-0.8,0.2-1.5,0.3-2c0.4-1.2,0.9-1.8,0.9-1.8c1.4,1,2.6,1.5,3.7,1.8
					C385.9,171.1,387,171,387.8,170.5z"/>
				<linearGradient id="SVGID_14_" gradientUnits="userSpaceOnUse" x1="381.7445" y1="178.9485" x2="382.468" y2="174.3359">
					<stop  offset="0" style="stop-color:#FFC5AE"/>
					<stop  offset="1" style="stop-color:#EA8B6A"/>
				</linearGradient>
				<path class="st27" d="M383.9,179.4c0,1-0.2,1.7-0.8,1.8c-1.3,0.1-3-1.6-2.9-3.4c0-0.6,0-1.3,0-1.9c0-0.6,0-1.2,0-1.6
					c0.5,1.3,1.6,3,3.4,3.5c0.1,0,0.2,0.1,0.3,0.1C383.9,178.4,383.9,178.9,383.9,179.4z"/>
				<path class="st25" d="M414.1,168.4c-0.1,0.4-0.4,1-1.1,1.8c0-2.2-0.4-5.4-0.6-6.8c0.5-0.4,0.8-0.6,0.8-0.6
					S414.4,166.7,414.1,168.4z"/>
				<path class="st25" d="M359.3,149.7c-1.9,1.6-2.8,5.2-3.2,6.8c-0.6-1.1-0.9-1.8-0.9-2c0.1-1.3,2.6-6,3.2-6
					C358.5,148.5,358.8,149,359.3,149.7z"/>
				<path class="st28" d="M389.4,201.8c-4.3,0.6-12.3,1.2-19.3-1.8c0.3-3.3,0.6-9.3,0.7-13.8c3.5,1.5,10.9,4.1,18.7,3.3
					C388.9,193.8,389.1,198.1,389.4,201.8z"/>
				<path class="st2" d="M388.5,211.4c-7,4.5-20.2-3.1-20.5-4.3c-0.3-1.3,1-2.6,1.7-4.8c0.1-0.4,0.2-1.2,0.4-2.3
					c0.3-3.3,0.6-9.3,0.7-13.8c0.1-2.9,0-5.1-0.1-5.7c0.2,0.5,2.5,8,3.7,15.4c1.3,7.6,1,11.2,4.7,13.7
					C381.3,210.9,385.2,211.6,388.5,211.4z"/>
				<path class="st1" d="M404.5,232.3c0,3.1-11.3,20.5-13.6,24.1c-0.3,0.4-0.4,0.6-0.4,0.6s-1.5-0.2-2.6-0.6
					c-0.8-0.3-1.5-0.7-1.5-1.2c0-0.1,0-0.3,0.1-0.5c0.4-2.4,2.9-11.2,6-22.8c-1.7-2-13.4-9.9-13.4-9.9s0,0,0,0
					c-0.5,1.2-16.8,39.1-18.7,42.6c-0.1,0.1-0.1,0.2-0.1,0.2c-0.8,1.1-4.3,1.2-4.6-1.1c0,0,0,0,0,0c-1-9.6,7.2-38.5,11-51.3
					c0.7-2.3,1.2-4.1,1.6-5.1c1.9,1.9,13.7,8.2,20.3,4c0.3-0.2,0.6-0.4,0.9-0.7c0.2-0.2,0.4-0.7,0.4-1.4c0.1,0.1,0.2,0.3,0.4,0.4
					C394.7,215,404.5,229.3,404.5,232.3z"/>
				<path class="st16" d="M361.5,270c-0.4,2.3-12.3,8.9-11.2,4.9c0.9-3.3,4.2-9,5.4-11.1c0,0,0,0,0,0c0.2,2.3,3.7,2.2,4.6,1.1
					c0,0,0.1-0.1,0.1-0.2C361,266.5,361.8,268.6,361.5,270z"/>
				<path class="st16" d="M394.8,268.1c-0.9,0.5-12.6-4.1-12.3-5.6c0.3-1.5,3.9-7.7,3.9-7.7c0,0.2-0.1,0.4-0.1,0.5
					c0,1.3,4.2,1.8,4.2,1.8s0.2-0.2,0.4-0.6C391.5,261.1,395.7,267.6,394.8,268.1z"/>
				<path class="st29" d="M377.5,220.8c0,0-12.9,25.6-17.8,43.1"/>
				<path class="st29" d="M380.5,220.8c0,0,14.4,9.5,14.9,11c0.5,1.5-7.5,22.9-7.5,22.9"/>
				<path class="st2" d="M390.2,209.8c-1.6,6.4-10.7,4.6-15.4,3.4c-2.7-0.7-5.9-0.7-8.1-0.6c0.7-2.3,1.2-4.1,1.6-5.1
					c1.9,1.9,13.7,8.2,20.3,4c0.3-0.2,0.6-0.4,0.9-0.7c0.2-0.2,0.4-0.7,0.4-1.4C390,209.5,390.1,209.6,390.2,209.8z"/>
				<path class="st2" d="M387.9,256.5c-0.8-0.3-1.5-0.7-1.5-1.2c0-0.1,0-0.3,0.1-0.5c0.4-2.4,2.9-11.2,6-22.8
					c-1.7-2-13.4-9.9-13.4-9.9s1-3.3,2-3.5c1.1-0.2,13.5,10.5,14.9,12.8C397.2,233.3,388.7,249.3,387.9,256.5z"/>
				<path class="st2" d="M387.8,170.5c0,0.4-0.1,0.8-0.2,1.2c-3.1,1.6-6.2-2-6.6-2c-0.2,0-0.6,0.6-1,1.1c0.4-1.2,0.9-1.8,0.9-1.8
					c1.4,1,2.6,1.5,3.7,1.8C385.9,171.1,387,171,387.8,170.5z"/>
				<path class="st2" d="M383.9,179.4c-2.1-0.5-3.2-2.6-3.6-3.6c0-0.6,0-1.2,0-1.6c0.5,1.3,1.6,3,3.4,3.5c0.1,0,0.2,0.1,0.3,0.1
					C383.9,178.4,383.9,178.9,383.9,179.4z"/>
				<path class="st2" d="M389.5,189.4c-0.5,3.4-0.5,6.9-0.3,10c-0.8-3.5-1.5-7.2-0.7-9.3c1.4-3.7,1.6-3.9,1.6-3.9
					C389.9,187.3,389.7,188.4,389.5,189.4z"/>
			</g>
		</g>
		<g>
			<g>
				<path class="st11" d="M288.7,224l-38.8-6.7l-0.1,0.4l-85.6,97l-1.8,24.3l12.3,2.1l21.3,3.7l28.5,4.9l2.7,0.5l-2,12l-0.9,5.5
					l-3.1,18.3l25.2,4.4l13.5,2.3l6.1-35.8l17,2.9l5.1-30.1l-17-2.9L288.7,224z M240.3,273.8l-7.9,46.3l-9.5-1.6l-20.7-3.6
					l11.5-13.8l2.6-3.2l21.8-26.2l3.1-3.5L240.3,273.8z"/>
				<path class="st2" d="M224.5,349.7l-28.5-4.9c3.4-11.2,7.6-26.6,6.2-29.9l20.7,3.6c1.3,2.2,2.4,5.3,2.7,9.5
					C226.1,335.3,225,342.9,224.5,349.7z"/>
				<path class="st1" d="M203.4,315.1c0,0,3.1-4.3,10.1-3c7,1.4,7.5,10,4.5,19.6c-3.1,9.6-3.8,43-2.3,53.9
					c1.4,10.8,0.5,15.9-2.9,16.3c-3.4,0.4-5-13-3.1-22.4c2-9.4,1.8-18.1-1.4-16.6c-3.2,1.4-0.5,5.1-2.2,8.3
					c-1.6,3.3-6.5,1.3-6.3-4.9C200.1,360.1,209.9,320.1,203.4,315.1z"/>
				<polygon class="st2" points="271.1,326.8 288.2,329.7 283,359.8 266,356.9 259.9,392.7 246.4,390.3 270.2,240.9 288.7,224 				
					"/>
			</g>
			<line class="st18" x1="259.6" y1="1" x2="259.6" y2="233.9"/>
		</g>
		<g>
			<path class="st24" d="M331.8,180.4c0,3.9-3.1,7.1-7,7.1c-3.9,0-7-3.2-7-7.1c0-3.9,3.1-7.1,7-7.1
				C328.6,173.4,331.8,176.5,331.8,180.4z"/>
			<path class="st11" d="M575.6,270.1c0,3.9-3.1,7.1-7,7.1c-3.9,0-7-3.2-7-7.1c0-3.9,3.1-7.1,7-7.1
				C572.4,263,575.6,266.2,575.6,270.1z"/>
			<path class="st1" d="M209.2,218.6c0,3.9-3.1,7.1-7,7.1s-7-3.2-7-7.1c0-3.9,3.1-7.1,7-7.1S209.2,214.7,209.2,218.6z"/>
			<path class="st4" d="M324.8,434.2c0,3.9-3.1,7.1-7,7.1c-3.9,0-7-3.2-7-7.1c0-3.9,3.1-7.1,7-7.1
				C321.6,427.2,324.8,430.3,324.8,434.2z"/>
			<ellipse class="st24" cx="528.5" cy="201.7" rx="2.7" ry="2.7"/>
			<ellipse class="st1" cx="322.1" cy="244" rx="2.7" ry="2.7"/>
			<path class="st11" d="M243.9,207.2c0,1.5-1.2,2.7-2.7,2.7c-1.5,0-2.7-1.2-2.7-2.7c0-1.5,1.2-2.7,2.7-2.7
				C242.7,204.5,243.9,205.7,243.9,207.2z"/>
		</g>
		<g>
			<linearGradient id="SVGID_15_" gradientUnits="userSpaceOnUse" x1="646.0176" y1="80.0484" x2="403.7409" y2="136.1245">
				<stop  offset="0" style="stop-color:#FFFFFF;stop-opacity:0"/>
				<stop  offset="1" style="stop-color:#98C4F9"/>
			</linearGradient>
			<path class="st30" d="M606.8,58.1c0,0-10.8-10.8-31.3-6.5c-20.5,4.3-34.9,36.9-49.8,44.1c-14.9,7.2-44.3,28.6-46.5,46.8
				c28.7-24.1,39.5-13.6,58.2-16.5c18.7-2.9,20.1-25,47.1-24.2c26.9,0.7,55.7,34.4,82.6,15.6c26.9-18.8,58.6-41.3,33.1-59.7
				C674.7,39.3,623,67.5,606.8,58.1z"/>
			
				<linearGradient id="SVGID_16_" gradientUnits="userSpaceOnUse" x1="-1374.8595" y1="776.6351" x2="-1617.6969" y2="832.841" gradientTransform="matrix(-0.5639 -0.8258 0.8258 -0.5639 -1251.3242 -610.823)">
				<stop  offset="0" style="stop-color:#FFFFFF;stop-opacity:0"/>
				<stop  offset="1" style="stop-color:#98C4F9"/>
			</linearGradient>
			<path class="st31" d="M169.6,131.5c0,0-2.8,15.1,12.3,29.7c15.1,14.6,49.9,8.2,64.3,16.5c14.3,8.3,48.4,20.7,64.6,12.2
				c-35.9-10.3-33.4-25.2-46.3-39.1c-12.9-13.9-31.8-2.7-46.4-25.5c-14.6-22.8-3.2-65.7-33.8-77.5C153.5,36,117.3,22.4,116.6,54
				C115.8,85.6,168.1,112.7,169.6,131.5z"/>
			<linearGradient id="SVGID_17_" gradientUnits="userSpaceOnUse" x1="671.2628" y1="326.8942" x2="323.3573" y2="407.4186">
				<stop  offset="0" style="stop-color:#FFFFFF;stop-opacity:0"/>
				<stop  offset="1" style="stop-color:#98C4F9"/>
			</linearGradient>
			<path class="st32" d="M691.3,218c0,0-43.8,48.4-53.2,105.2c-9.3,56.8-54.3,53.1-69.5,79.9c-15.3,26.8-51.6,28.9-68.3,39.8
				c-16.7,10.8-54.6-8-61.2,0c-6.5,8,34.1,20.3,86.7,21c52.6,0.7,62.7-40.5,109.4-46.3c46.7-5.8,93.4-26,109.9-102.7
				S733.7,197.1,691.3,218z"/>
			
				<linearGradient id="SVGID_18_" gradientUnits="userSpaceOnUse" x1="-1666.696" y1="346.386" x2="-2014.6016" y2="426.9104" gradientTransform="matrix(-1 0 0 1 -1588.0908 0)">
				<stop  offset="0" style="stop-color:#FFFFFF;stop-opacity:0"/>
				<stop  offset="1" style="stop-color:#98C4F9"/>
			</linearGradient>
			<path class="st33" d="M58.6,237.5c0,0,43.8,48.4,53.2,105.2c9.3,56.8,54.3,53.1,69.5,79.9s51.6,28.9,68.3,39.8
				c16.7,10.8,54.6-8,61.2,0c6.5,8-34.1,20.3-86.7,21c-52.6,0.7-62.7-40.5-109.4-46.3C68,431.2,21.2,411,4.7,334.3
				S16.2,216.6,58.6,237.5z"/>
		</g>
	</g>
</g>
<g id="DESIGNED_BY_FREEPIK">
</g>
</svg>
