<?xml version="1.0" encoding="utf-8"?>
<!-- Generator: Adobe Illustrator 22.0.0, SVG Export Plug-In . SVG Version: 6.00 Build 0)  -->
<svg version="1.1" id="Layer_1" xmlns="http://www.w3.org/2000/svg" xmlns:xlink="http://www.w3.org/1999/xlink" x="0px" y="0px"
	 viewBox="0 0 150 150" style="enable-background:new 0 0 150 150;" xml:space="preserve">
<style type="text/css">
	.st0{fill:#FFFFFF;}
	.st1{fill:url(#SVGID_1_);}
</style>
<g>
	<g>
		<path class="st0" d="M132,75.2c0,31.1-25.2,56.3-56.3,56.3c-31.1,0-56.3-25.2-56.3-56.3C19.5,44.1,44.7,19,75.7,19
			C106.8,19,132,44.1,132,75.2z"/>
	</g>
</g>
<linearGradient id="SVGID_1_" gradientUnits="userSpaceOnUse" x1="75.7373" y1="43.7267" x2="75.7373" y2="109.8367" gradientTransform="matrix(1 0 0 -1 0 152)">
	<stop  offset="0" style="stop-color:#14A6C7"/>
	<stop  offset="0.5" style="stop-color:#C570B5"/>
	<stop  offset="1" style="stop-color:#F14E59"/>
</linearGradient>
<path class="st1" d="M106.5,99.3c0,0,0-0.1,0-0.1c0-2.5-2-4.6-4.6-4.6V73.5l4.1-3.1c0.5-0.4,0.6-1.1,0.2-1.6
	c-0.1-0.1-0.1-0.2-0.2-0.2l-9.8-7.2V49c0.6,0,1.1-0.5,1.1-1.1v-4.6c0-0.6-0.5-1.1-1.1-1.1H84.9c-0.6,0-1.1,0.5-1.1,1.1v4.6
	c0,0.6,0.5,1.1,1.1,1.1v4.1l-8.4-6.2c-0.4-0.3-0.9-0.3-1.3,0L45.4,68.6c-0.5,0.4-0.6,1.1-0.2,1.6c0.1,0.1,0.1,0.2,0.2,0.2l4.1,3.1
	v21.1c-2.5,0-4.6,2-4.6,4.6c0,0,0,0.1,0,0.1c-2.4,0.6-3.9,3.1-3.3,5.6c0.5,2,2.3,3.4,4.4,3.4h59.3c2.5,0,4.6-2,4.6-4.6
	C109.9,101.6,108.5,99.8,106.5,99.3z M86,44.4h9.1v2.3H86V44.4z M87.1,54.7V49H94v10.8L87,54.7H87.1z M75.7,49.3l27.7,20.3l-2.7,2
	L76.4,53.8c-0.4-0.3-0.9-0.3-1.3,0L50.7,71.5l-2.7-2L75.7,49.3z M43.8,103.7c0-1.2,1-2.3,2.2-2.3h0c0.1,0,0.1,0,0.2,0
	c0.6,0,1.2-0.4,1.2-1.1c0-0.2,0-0.3-0.1-0.5c-0.1-0.2-0.1-0.5-0.1-0.8c0-1.3,1-2.3,2.3-2.3v9.1h-3.4C44.8,106,43.8,105,43.8,103.7z
	 M92.8,106H79.2V80.9h13.7V106z M95.1,106V79.8c0-0.6-0.5-1.1-1.1-1.1H78c-0.6,0-1.1,0.5-1.1,1.1V106H51.8V73.5l23.9-17.4l23.9,17.4
	V106H95.1z M105.4,106H102v-9.1c1.3,0,2.3,1,2.3,2.3c0,0.3-0.1,0.5-0.1,0.8c-0.2,0.6,0.1,1.2,0.7,1.5c0.1,0.1,0.3,0.1,0.5,0.1
	c0.1,0,0.1,0,0.2,0h0c1.3,0,2.3,1,2.3,2.3S106.6,106,105.4,106L105.4,106z M71.2,78.6H57.5c-0.6,0-1.1,0.5-1.1,1.1v16
	c0,0.6,0.5,1.1,1.1,1.1h13.7c0.6,0,1.1-0.5,1.1-1.1v-16C72.3,79.1,71.8,78.6,71.2,78.6z M70,86.6h-4.6v-5.7H70V86.6z M63.2,80.9v5.7
	h-4.6v-5.7H63.2z M58.6,88.9h4.6v5.7h-4.6V88.9z M65.5,94.6v-5.7H70v5.7H65.5z M81.4,92.3c0-0.6,0.5-1.1,1.1-1.1s1.1,0.5,1.1,1.1
	s-0.5,1.1-1.1,1.1S81.4,92.9,81.4,92.3z"/>
</svg>
