<?xml version="1.0" encoding="utf-8"?>
<!-- Generator: Adobe Illustrator 22.0.0, SVG Export Plug-In . SVG Version: 6.00 Build 0)  -->
<svg version="1.1" id="Layer_1" xmlns="http://www.w3.org/2000/svg" xmlns:xlink="http://www.w3.org/1999/xlink" x="0px" y="0px"
	 viewBox="0 0 492 492" style="enable-background:new 0 0 492 492;" xml:space="preserve">
<style type="text/css">
	.st0{fill:#FFFFFF;}
</style>
<g>
	<g>
		<path class="st0" d="M382.7,226.8L163.7,7.9c-5.1-5.1-11.8-7.9-19-7.9s-14,2.8-19,7.9L109.5,24c-10.5,10.5-10.5,27.6,0,38.1
			l183.9,183.9L109.3,430c-5.1,5.1-7.9,11.8-7.9,19c0,7.2,2.8,14,7.9,19l16.1,16.1c5.1,5.1,11.8,7.9,19,7.9s14-2.8,19-7.9L382.7,265
			c5.1-5.1,7.9-11.9,7.8-19.1C390.5,238.7,387.8,231.9,382.7,226.8z"/>
	</g>
</g>
</svg>
