<?xml version="1.0" standalone="no"?><svg xmlns="http://www.w3.org/2000/svg" viewBox="0 0 1440 320"><path fill="#fff" fill-opacity="1" d="M0,192L26.7,202.7C53.3,213,107,235,160,245.3C213.3,256,267,256,320,250.7C373.3,245,427,235,480,208C533.3,181,587,139,640,133.3C693.3,128,747,160,800,186.7C853.3,213,907,235,960,250.7C1013.3,267,1067,277,1120,261.3C1173.3,245,1227,203,1280,192C1333.3,181,1387,203,1413,213.3L1440,224L1440,320L1413.3,320C1386.7,320,1333,320,1280,320C1226.7,320,1173,320,1120,320C1066.7,320,1013,320,960,320C906.7,320,853,320,800,320C746.7,320,693,320,640,320C586.7,320,533,320,480,320C426.7,320,373,320,320,320C266.7,320,213,320,160,320C106.7,320,53,320,27,320L0,320Z"></path></svg>