<svg xmlns="http://www.w3.org/2000/svg" width="53.48" height="42.96" viewBox="0 0 53.48 42.96">
  <g id="logo" transform="translate(-216.56 -16)">
    <path id="Path_5" data-name="Path 5" d="M9.12.6a7.63,7.63,0,0,0,7.92-7.8c0-4.62-3.42-7.68-7.92-7.68S1.2-11.82,1.2-7.2A7.63,7.63,0,0,0,9.12.6Z" transform="translate(253 58)" fill="#2e3349"/>
    <path id="Path_6" data-name="Path 6" d="M14.04.96C25.32.96,31.38-4.68,31.38-16.2V-42H3.12v10.68H17.4v15.96c0,3.42-1.62,5.22-4.56,5.22-2.34,0-4.44-1.38-6.66-4.14l-7.62,9C2.04-1.2,7.5.96,14.04.96Z" transform="translate(218 58)" fill="#fbd214"/>
  </g>
</svg>
