<svg xmlns="http://www.w3.org/2000/svg" xmlns:xlink="http://www.w3.org/1999/xlink" preserveAspectRatio="xMidYMid" width="44" height="41" viewBox="0 0 44 41">
  <defs>
    <style>
      .cls-1 {
        fill: #fff;
        fill-rule: evenodd;
      }
    </style>
  </defs>
  <path d="M43.547,10.194 L33.733,14.248 L33.733,15.571 L42.533,11.955 L42.533,11.713 C42.533,11.310 42.861,10.982 43.267,10.982 C43.672,10.982 44.000,11.310 44.000,11.714 L44.000,12.446 C44.000,12.743 43.821,13.010 43.546,13.123 L33.733,17.155 L33.733,26.237 C34.632,25.293 35.073,24.335 35.200,24.025 L35.200,19.035 C35.200,18.631 35.528,18.303 35.933,18.303 C36.339,18.303 36.666,18.631 36.666,19.035 L36.666,24.160 C36.666,24.242 36.653,24.323 36.626,24.400 C36.593,24.493 35.839,26.607 33.733,28.193 L33.733,32.349 C34.585,32.653 35.200,33.457 35.200,34.410 C35.200,35.622 34.213,36.607 33.000,36.607 C31.787,36.607 30.800,35.622 30.800,34.410 C30.800,33.457 31.415,32.653 32.267,32.349 L32.267,16.658 L32.267,16.657 L32.267,14.311 L23.898,11.192 C23.389,11.514 22.734,11.713 22.000,11.713 C20.355,11.713 19.067,10.749 19.067,9.517 C19.067,8.286 20.355,7.321 22.000,7.321 C23.645,7.321 24.933,8.286 24.933,9.517 C24.933,9.680 24.908,9.837 24.865,9.989 L32.929,12.996 L41.349,9.517 L22.000,1.524 L2.651,9.517 L22.000,17.511 L29.410,14.450 C29.784,14.297 30.213,14.473 30.367,14.847 C30.522,15.221 30.345,15.649 29.970,15.803 L22.280,18.979 C22.191,19.017 22.095,19.035 22.000,19.035 C21.905,19.035 21.809,19.017 21.720,18.979 L0.453,10.194 C0.179,10.081 -0.000,9.814 -0.000,9.517 C-0.000,9.221 0.179,8.954 0.453,8.841 L21.720,0.055 C21.899,-0.019 22.100,-0.019 22.280,0.055 L43.547,8.841 C43.821,8.954 44.000,9.221 44.000,9.517 C44.000,9.814 43.821,10.081 43.547,10.194 ZM22.000,8.785 C21.104,8.785 20.533,9.218 20.533,9.517 C20.533,9.816 21.105,10.249 22.000,10.249 C22.895,10.249 23.467,9.816 23.467,9.517 C23.467,9.218 22.895,8.785 22.000,8.785 ZM33.000,33.678 C32.595,33.678 32.267,34.007 32.267,34.410 C32.267,34.814 32.595,35.143 33.000,35.143 C33.405,35.143 33.733,34.814 33.733,34.410 C33.733,34.007 33.405,33.678 33.000,33.678 ZM0.733,10.982 C1.138,10.982 1.467,11.310 1.467,11.713 L1.467,11.956 L22.000,20.439 L29.785,17.222 C30.158,17.069 30.589,17.245 30.744,17.619 C30.898,17.993 30.721,18.421 30.347,18.576 L22.280,21.908 C22.191,21.945 22.095,21.964 22.000,21.964 C21.905,21.964 21.809,21.945 21.720,21.908 L0.453,13.122 C0.179,13.010 -0.000,12.742 -0.000,12.446 L-0.000,11.713 C-0.000,11.310 0.329,10.982 0.733,10.982 ZM8.067,18.303 C8.472,18.303 8.800,18.631 8.800,19.035 L8.800,24.008 C9.222,24.925 12.161,30.432 21.267,30.722 L21.267,24.160 C21.267,23.756 21.595,23.428 22.000,23.428 C22.405,23.428 22.733,23.756 22.733,24.160 L22.733,30.728 C26.023,30.619 28.349,29.820 29.742,29.132 C30.106,28.953 30.545,29.102 30.724,29.465 C30.904,29.827 30.755,30.265 30.392,30.445 C28.756,31.252 25.973,32.214 22.000,32.214 C10.634,32.214 7.513,24.750 7.385,24.432 C7.351,24.345 7.333,24.253 7.333,24.160 L7.333,19.035 C7.333,18.631 7.662,18.303 8.067,18.303 ZM30.089,37.161 C30.186,36.769 30.584,36.529 30.977,36.629 C31.370,36.727 31.610,37.124 31.511,37.517 L30.778,40.446 C30.694,40.778 30.396,40.999 30.067,40.999 C30.009,40.999 29.949,40.993 29.889,40.978 C29.496,40.879 29.256,40.483 29.355,40.090 L30.089,37.161 ZM33.000,37.339 C33.405,37.339 33.733,37.667 33.733,38.071 L33.733,40.268 C33.733,40.672 33.405,40.999 33.000,40.999 C32.594,40.999 32.267,40.672 32.267,40.268 L32.267,38.071 C32.267,37.667 32.594,37.339 33.000,37.339 ZM35.022,36.629 C35.414,36.530 35.813,36.769 35.911,37.161 L36.645,40.090 C36.743,40.483 36.504,40.880 36.111,40.978 C36.051,40.993 35.991,40.999 35.933,40.999 C35.604,40.999 35.306,40.778 35.222,40.446 L34.489,37.517 C34.390,37.124 34.629,36.727 35.022,36.629 Z" class="cls-1"/>
</svg>
