<svg xmlns="http://www.w3.org/2000/svg" xmlns:xlink="http://www.w3.org/1999/xlink" preserveAspectRatio="xMidYMid" width="40" height="40" viewBox="0 0 40 40">
  <defs>
    <style>
      .cls-1 {
        fill: #fff;
        fill-rule: evenodd;
      }
    </style>
  </defs>
  <path d="M29.535,8.636 C27.599,9.247 23.675,11.241 23.636,11.261 C23.539,11.310 23.435,11.333 23.334,11.333 C23.091,11.333 22.857,11.200 22.739,10.969 C22.572,10.641 22.703,10.239 23.031,10.073 C23.196,9.988 27.093,8.009 29.132,7.364 C29.486,7.254 29.858,7.449 29.969,7.799 C30.080,8.150 29.885,8.525 29.535,8.636 ZM23.031,14.072 C23.196,13.989 27.093,12.008 29.132,11.364 C29.486,11.253 29.858,11.449 29.969,11.799 C30.080,12.150 29.885,12.524 29.535,12.636 C27.599,13.247 23.675,15.240 23.636,15.260 C23.539,15.310 23.435,15.333 23.334,15.333 C23.091,15.333 22.857,15.200 22.739,14.969 C22.572,14.640 22.703,14.239 23.031,14.072 ZM23.031,18.073 C23.196,17.988 27.093,16.009 29.132,15.364 C29.486,15.253 29.858,15.448 29.969,15.799 C30.080,16.150 29.885,16.524 29.535,16.636 C27.599,17.247 23.675,19.241 23.636,19.261 C23.539,19.310 23.435,19.333 23.334,19.333 C23.091,19.333 22.857,19.200 22.739,18.969 C22.572,18.641 22.703,18.239 23.031,18.073 ZM23.031,26.072 C23.196,25.988 27.093,24.009 29.132,23.364 C29.486,23.253 29.858,23.448 29.969,23.799 C30.080,24.150 29.885,24.524 29.535,24.636 C27.599,25.247 23.675,27.241 23.636,27.260 C23.539,27.310 23.435,27.333 23.334,27.333 C23.091,27.333 22.857,27.200 22.739,26.969 C22.572,26.640 22.703,26.239 23.031,26.072 ZM23.031,22.072 C23.196,21.988 27.093,20.008 29.132,19.364 C29.486,19.253 29.858,19.449 29.969,19.799 C30.080,20.150 29.885,20.525 29.535,20.636 C27.599,21.247 23.675,23.240 23.636,23.260 C23.539,23.310 23.435,23.333 23.334,23.333 C23.091,23.333 22.857,23.200 22.739,22.969 C22.572,22.640 22.703,22.239 23.031,22.072 ZM16.649,29.172 C16.565,29.531 16.205,29.752 15.848,29.670 C12.055,28.780 7.551,29.965 7.506,29.977 C7.448,29.992 7.390,30.001 7.333,30.001 C7.039,30.001 6.769,29.804 6.689,29.506 C6.594,29.150 6.805,28.784 7.161,28.689 C7.357,28.636 12.035,27.406 16.152,28.372 C16.511,28.456 16.733,28.814 16.649,29.172 ZM16.649,25.172 C16.565,25.531 16.205,25.753 15.848,25.670 C12.055,24.780 7.551,25.964 7.506,25.977 C7.448,25.993 7.390,26.000 7.333,26.000 C7.039,26.000 6.769,25.804 6.689,25.506 C6.594,25.150 6.805,24.785 7.161,24.689 C7.357,24.636 12.035,23.406 16.152,24.372 C16.511,24.456 16.733,24.815 16.649,25.172 ZM16.649,21.173 C16.565,21.531 16.205,21.753 15.848,21.670 C12.055,20.780 7.551,21.965 7.506,21.977 C7.448,21.992 7.390,22.001 7.333,22.001 C7.039,22.001 6.769,21.804 6.689,21.506 C6.594,21.150 6.805,20.784 7.161,20.689 C7.357,20.636 12.035,19.407 16.152,20.372 C16.511,20.456 16.733,20.814 16.649,21.173 ZM15.848,13.670 C12.055,12.780 7.551,13.965 7.506,13.977 C7.448,13.992 7.390,14.000 7.333,14.000 C7.039,14.000 6.769,13.804 6.689,13.506 C6.594,13.150 6.805,12.784 7.161,12.689 C7.357,12.636 12.035,11.406 16.152,12.372 C16.511,12.456 16.733,12.814 16.649,13.173 C16.565,13.531 16.205,13.753 15.848,13.670 ZM16.649,17.172 C16.565,17.531 16.205,17.753 15.848,17.670 C12.055,16.780 7.551,17.964 7.506,17.977 C7.448,17.993 7.390,18.000 7.333,18.000 C7.039,18.000 6.769,17.804 6.689,17.506 C6.594,17.150 6.805,16.785 7.161,16.689 C7.357,16.637 12.035,15.406 16.152,16.372 C16.511,16.456 16.733,16.815 16.649,17.172 ZM36.667,40.000 L3.333,40.000 C1.495,40.000 -0.000,38.504 -0.000,36.667 L-0.000,10.667 C-0.000,10.299 0.299,10.000 0.667,10.000 C1.035,10.000 1.333,10.299 1.333,10.667 L1.333,36.667 C1.333,37.769 2.231,38.666 3.333,38.666 L19.333,38.666 L19.333,37.099 C18.520,36.758 16.437,36.000 14.000,36.000 C8.172,36.000 3.562,37.294 3.516,37.307 C3.456,37.324 3.395,37.333 3.333,37.333 C3.190,37.333 3.049,37.287 2.931,37.199 C2.765,37.073 2.667,36.875 2.667,36.667 L2.667,7.333 C2.667,7.036 2.864,6.774 3.150,6.693 C3.344,6.637 7.976,5.333 14.000,5.333 C17.451,5.333 20.183,6.680 20.298,6.736 C20.524,6.850 20.667,7.081 20.667,7.333 L20.667,32.842 C22.698,31.686 27.449,29.104 32.000,27.522 L32.000,1.642 C27.098,3.613 22.402,6.534 22.353,6.565 C22.040,6.761 21.629,6.665 21.435,6.353 C21.239,6.041 21.334,5.630 21.647,5.435 C21.701,5.401 27.098,2.043 32.432,0.042 C32.638,-0.035 32.867,-0.006 33.046,0.119 C33.226,0.243 33.333,0.448 33.333,0.667 L33.333,28.000 C33.333,28.287 33.150,28.541 32.877,28.632 C27.015,30.586 20.409,34.531 20.343,34.571 C20.137,34.695 19.880,34.699 19.671,34.580 C19.462,34.462 19.333,34.240 19.333,34.000 L19.333,7.765 C18.515,7.423 16.431,6.666 14.000,6.666 C9.263,6.666 5.331,7.522 4.000,7.849 L4.000,35.808 C5.625,35.424 9.408,34.666 14.000,34.666 C16.869,34.666 19.241,35.597 20.026,35.944 C20.909,35.620 23.762,34.666 26.667,34.666 C31.135,34.666 34.489,35.384 36.000,35.780 L36.000,7.875 C35.780,7.831 35.495,7.776 35.154,7.713 C34.792,7.647 34.553,7.299 34.619,6.937 C34.686,6.575 35.034,6.335 35.395,6.402 C36.288,6.566 36.811,6.683 36.811,6.683 C37.117,6.750 37.333,7.020 37.333,7.333 L37.333,36.666 C37.333,36.880 37.231,37.082 37.057,37.207 C36.881,37.332 36.657,37.366 36.457,37.299 C36.417,37.286 32.474,36.000 26.667,36.000 C24.171,36.000 21.639,36.792 20.667,37.132 L20.667,38.666 L36.667,38.666 C37.769,38.666 38.667,37.769 38.667,36.666 L38.667,10.667 C38.667,10.298 38.965,10.000 39.333,10.000 C39.702,10.000 40.000,10.298 40.000,10.667 L40.000,36.667 C40.000,38.504 38.505,40.000 36.667,40.000 Z" class="cls-1"/>
</svg>
