<svg xmlns="http://www.w3.org/2000/svg" xmlns:xlink="http://www.w3.org/1999/xlink" preserveAspectRatio="xMidYMid" width="40" height="40" viewBox="0 0 40 40">
  <defs>
    <style>
      .cls-1 {
        fill: #fff;
        fill-rule: evenodd;
      }
    </style>
  </defs>
  <path d="M3.333,15.999 L4.667,15.999 C5.035,15.999 5.333,16.299 5.333,16.666 C5.333,17.034 5.035,17.333 4.667,17.333 L3.333,17.333 C2.965,17.333 2.667,17.034 2.667,16.666 C2.667,16.299 2.965,15.999 3.333,15.999 ZM3.333,18.666 L4.667,18.666 C5.035,18.666 5.333,18.965 5.333,19.333 C5.333,19.701 5.035,20.000 4.667,20.000 L3.333,20.000 C2.965,20.000 2.667,19.701 2.667,19.333 C2.667,18.965 2.965,18.666 3.333,18.666 ZM3.333,34.666 L4.667,34.666 C5.035,34.666 5.333,34.965 5.333,35.333 C5.333,35.701 5.035,36.000 4.667,36.000 L3.333,36.000 C2.965,36.000 2.667,35.701 2.667,35.333 C2.667,34.965 2.965,34.666 3.333,34.666 ZM3.333,32.000 L4.667,32.000 C5.035,32.000 5.333,32.298 5.333,32.666 C5.333,33.034 5.035,33.333 4.667,33.333 L3.333,33.333 C2.965,33.333 2.667,33.034 2.667,32.666 C2.667,32.298 2.965,32.000 3.333,32.000 ZM36.667,15.999 C37.035,15.999 37.333,16.299 37.333,16.666 L37.333,23.333 C37.333,23.701 37.035,24.000 36.667,24.000 C36.299,24.000 36.000,23.701 36.000,23.333 L36.000,16.666 C36.000,16.299 36.299,15.999 36.667,15.999 ZM34.000,34.666 L36.667,34.666 C37.035,34.666 37.333,34.965 37.333,35.333 C37.333,35.701 37.035,36.000 36.667,36.000 L34.000,36.000 C33.632,36.000 33.333,35.701 33.333,35.333 C33.333,34.965 33.632,34.666 34.000,34.666 ZM33.333,23.333 L33.333,16.666 C33.333,16.299 33.632,16.000 34.000,16.000 C34.368,16.000 34.667,16.299 34.667,16.666 L34.667,23.333 C34.667,23.701 34.368,24.000 34.000,24.000 C33.632,24.000 33.333,23.701 33.333,23.333 ZM37.333,32.666 C37.333,33.034 37.035,33.333 36.667,33.333 L34.000,33.333 C33.632,33.333 33.333,33.034 33.333,32.666 C33.333,32.298 33.632,32.000 34.000,32.000 L36.667,32.000 C37.035,32.000 37.333,32.298 37.333,32.666 ZM38.000,40.000 L2.000,40.000 C0.897,40.000 -0.000,39.102 -0.000,38.000 L-0.000,6.000 C-0.000,4.897 0.897,4.000 2.000,4.000 L4.667,4.000 C5.035,4.000 5.333,4.298 5.333,4.666 C5.333,5.034 5.035,5.333 4.667,5.333 L2.000,5.333 C1.633,5.333 1.333,5.632 1.333,6.000 L1.333,38.000 C1.333,38.367 1.633,38.666 2.000,38.666 L6.667,38.666 L6.667,9.333 L3.333,9.333 C2.965,9.333 2.667,9.034 2.667,8.666 C2.667,8.299 2.965,7.999 3.333,7.999 L6.667,7.999 L6.667,2.000 C6.667,0.897 7.564,-0.001 8.667,-0.001 L15.333,-0.001 C16.455,-0.001 17.333,0.878 17.333,2.000 L17.333,2.666 L22.000,2.666 C22.368,2.666 22.667,2.965 22.667,3.333 C22.667,3.701 22.368,4.000 22.000,4.000 L17.333,4.000 L17.333,38.666 L24.000,38.666 L24.000,3.333 C24.000,2.231 24.897,1.333 26.000,1.333 L30.000,1.333 C31.121,1.333 32.000,2.212 32.000,3.333 L32.000,9.333 L36.000,9.333 C36.368,9.333 36.667,9.632 36.667,10.000 C36.667,10.368 36.368,10.666 36.000,10.666 L32.000,10.666 L32.000,38.666 L38.000,38.666 C38.367,38.666 38.667,38.367 38.667,38.000 L38.667,7.333 C38.667,6.965 38.367,6.666 38.000,6.666 L34.000,6.666 C33.632,6.666 33.333,6.368 33.333,6.000 C33.333,5.632 33.632,5.333 34.000,5.333 L38.000,5.333 C39.103,5.333 40.000,6.230 40.000,7.333 L40.000,38.000 C40.000,39.102 39.103,40.000 38.000,40.000 ZM16.000,2.000 C16.000,1.620 15.713,1.333 15.333,1.333 L8.667,1.333 C8.293,1.333 8.000,1.626 8.000,2.000 L8.000,4.000 L14.000,4.000 C14.368,4.000 14.667,4.298 14.667,4.666 C14.667,5.034 14.368,5.333 14.000,5.333 L8.000,5.333 L8.000,38.666 L16.000,38.666 L16.000,2.000 ZM30.667,3.333 C30.667,2.953 30.380,2.666 30.000,2.666 L26.000,2.666 C25.626,2.666 25.333,2.959 25.333,3.333 L25.333,5.333 L28.667,5.333 C29.035,5.333 29.333,5.632 29.333,6.000 C29.333,6.368 29.035,6.666 28.667,6.666 L25.333,6.666 L25.333,38.666 L30.667,38.666 L30.667,3.333 ZM27.333,10.666 L28.667,10.666 C29.035,10.666 29.333,10.965 29.333,11.333 C29.333,11.701 29.035,12.000 28.667,12.000 L27.333,12.000 C26.965,12.000 26.667,11.701 26.667,11.333 C26.667,10.965 26.965,10.666 27.333,10.666 ZM27.333,13.333 L28.667,13.333 C29.035,13.333 29.333,13.632 29.333,14.000 C29.333,14.368 29.035,14.666 28.667,14.666 L27.333,14.666 C26.965,14.666 26.667,14.368 26.667,14.000 C26.667,13.632 26.965,13.333 27.333,13.333 ZM27.333,15.999 L28.667,15.999 C29.035,15.999 29.333,16.299 29.333,16.666 C29.333,17.034 29.035,17.333 28.667,17.333 L27.333,17.333 C26.965,17.333 26.667,17.034 26.667,16.666 C26.667,16.299 26.965,15.999 27.333,15.999 ZM27.333,32.000 L28.667,32.000 C29.035,32.000 29.333,32.298 29.333,32.666 C29.333,33.034 29.035,33.333 28.667,33.333 L27.333,33.333 C26.965,33.333 26.667,33.034 26.667,32.666 C26.667,32.298 26.965,32.000 27.333,32.000 ZM27.333,34.666 L28.667,34.666 C29.035,34.666 29.333,34.965 29.333,35.333 C29.333,35.701 29.035,36.000 28.667,36.000 L27.333,36.000 C26.965,36.000 26.667,35.701 26.667,35.333 C26.667,34.965 26.965,34.666 27.333,34.666 ZM10.000,10.666 L14.000,10.666 C14.368,10.666 14.667,10.965 14.667,11.333 L14.667,20.667 C14.667,21.034 14.368,21.333 14.000,21.333 L10.000,21.333 C9.632,21.333 9.333,21.034 9.333,20.667 L9.333,11.333 C9.333,10.965 9.632,10.666 10.000,10.666 ZM10.667,20.000 L13.333,20.000 L13.333,12.000 L10.667,12.000 L10.667,20.000 ZM10.000,32.000 L14.000,32.000 C14.368,32.000 14.667,32.298 14.667,32.666 C14.667,33.034 14.368,33.333 14.000,33.333 L10.000,33.333 C9.632,33.333 9.333,33.034 9.333,32.666 C9.333,32.298 9.632,32.000 10.000,32.000 ZM10.000,34.666 L14.000,34.666 C14.368,34.666 14.667,34.965 14.667,35.333 C14.667,35.701 14.368,36.000 14.000,36.000 L10.000,36.000 C9.632,36.000 9.333,35.701 9.333,35.333 C9.333,34.965 9.632,34.666 10.000,34.666 ZM22.000,36.000 L19.333,36.000 C18.965,36.000 18.667,35.701 18.667,35.333 C18.667,34.965 18.965,34.666 19.333,34.666 L22.000,34.666 C22.368,34.666 22.667,34.965 22.667,35.333 C22.667,35.701 22.368,36.000 22.000,36.000 ZM22.000,33.333 L19.333,33.333 C18.965,33.333 18.667,33.034 18.667,32.666 C18.667,32.298 18.965,32.000 19.333,32.000 L22.000,32.000 C22.368,32.000 22.667,32.298 22.667,32.666 C22.667,33.034 22.368,33.333 22.000,33.333 ZM22.000,21.333 L19.333,21.333 C18.965,21.333 18.667,21.034 18.667,20.667 L18.667,11.333 C18.667,10.965 18.965,10.666 19.333,10.666 L22.000,10.666 C22.368,10.666 22.667,10.965 22.667,11.333 L22.667,20.667 C22.667,21.034 22.368,21.333 22.000,21.333 ZM21.333,12.000 L20.000,12.000 L20.000,20.000 L21.333,20.000 L21.333,12.000 Z" class="cls-1"/>
</svg>
