<svg xmlns="http://www.w3.org/2000/svg" viewBox="0 0 73.47 26.6"><title>Asset 2</title><g id="Layer_2" data-name="Layer 2"><g id="Layer_1-2" data-name="Layer 1"><path d="M0,17.28V0H25.87S10,5,0,17.28Z" fill="#1fb24b"/><path d="M4.66,26.6H25.87V.72S4.19,12.38,4.66,26.6Z" fill="#2c3f99"/><path d="M40.88,6a2.1,2.1,0,0,1,.41,1.32A2.07,2.07,0,0,1,40.54,9a3.28,3.28,0,0,1-2.1.6H35.38a.61.61,0,0,1-.45-.16A.58.58,0,0,1,34.77,9V1.71a.56.56,0,0,1,.16-.43.61.61,0,0,1,.45-.17h2.93a3.25,3.25,0,0,1,2,.59,1.94,1.94,0,0,1,.73,1.62,1.93,1.93,0,0,1-.35,1.17,2.18,2.18,0,0,1-1,.73A2,2,0,0,1,40.88,6ZM36,4.77h2.14c1.18,0,1.78-.44,1.78-1.34a1.17,1.17,0,0,0-.44-1,2.32,2.32,0,0,0-1.34-.32H36Zm3.69,3.47a1.25,1.25,0,0,0,.43-1,1.32,1.32,0,0,0-.44-1.08,2.16,2.16,0,0,0-1.35-.35H36V8.58h2.33A2.18,2.18,0,0,0,39.67,8.24Z" fill="#2c3f99"/><path d="M47.74,3.75a.62.62,0,0,1,.16.44V9.07a.55.55,0,0,1-.17.41.63.63,0,0,1-.44.15.56.56,0,0,1-.41-.15.51.51,0,0,1-.16-.4V8.63a1.85,1.85,0,0,1-.76.76,2.2,2.2,0,0,1-1.09.27c-1.42,0-2.13-.79-2.13-2.35V4.19a.58.58,0,0,1,.16-.44.64.64,0,0,1,.45-.15.63.63,0,0,1,.44.15.58.58,0,0,1,.16.44v3.1a1.61,1.61,0,0,0,.29,1,1.12,1.12,0,0,0,.89.33,1.48,1.48,0,0,0,1.13-.45A1.74,1.74,0,0,0,46.69,7V4.19a.57.57,0,0,1,.16-.43.62.62,0,0,1,.45-.16A.63.63,0,0,1,47.74,3.75Z" fill="#2c3f99"/><path d="M54.82,1.21a.54.54,0,0,1,.17.42V9.05a.57.57,0,0,1-.16.43.72.72,0,0,1-.88,0,.57.57,0,0,1-.16-.43V8.57a1.88,1.88,0,0,1-.77.81,2.54,2.54,0,0,1-2.51-.11,2.47,2.47,0,0,1-.93-1.08,3.64,3.64,0,0,1-.33-1.59A3.66,3.66,0,0,1,49.58,5a2.46,2.46,0,0,1,2.28-1.43A2.32,2.32,0,0,1,53,3.86a1.87,1.87,0,0,1,.76.79v-3a.53.53,0,0,1,.16-.41.62.62,0,0,1,.44-.15A.64.64,0,0,1,54.82,1.21Zm-1.46,7a2.39,2.39,0,0,0,.43-1.54,2.38,2.38,0,0,0-.43-1.53,1.45,1.45,0,0,0-1.21-.54,1.48,1.48,0,0,0-1.23.53,2.3,2.3,0,0,0-.44,1.52,2.45,2.45,0,0,0,.44,1.54,1.5,1.5,0,0,0,1.23.56A1.46,1.46,0,0,0,53.36,8.16Z" fill="#2c3f99"/><path d="M62,3.76a.57.57,0,0,1,.16.43V9.11a2.68,2.68,0,0,1-.71,2,2.93,2.93,0,0,1-2.11.69,4.42,4.42,0,0,1-2.16-.49.71.71,0,0,1-.44-.6.48.48,0,0,1,.11-.34.35.35,0,0,1,.28-.13,1.18,1.18,0,0,1,.49.18,7.94,7.94,0,0,0,.81.32,3.28,3.28,0,0,0,.89.11A1.47,1.47,0,0,0,60.94,9.2V8.28a1.85,1.85,0,0,1-.77.82,2.32,2.32,0,0,1-1.2.29A2.58,2.58,0,0,1,57.61,9a2.42,2.42,0,0,1-.93-1,3.34,3.34,0,0,1-.33-1.52A3.34,3.34,0,0,1,56.68,5,2.48,2.48,0,0,1,59,3.57a2.41,2.41,0,0,1,1.19.29,1.91,1.91,0,0,1,.77.82V4.17a.57.57,0,0,1,.16-.42.63.63,0,0,1,.44-.15A.6.6,0,0,1,62,3.76ZM60.49,7.92a2.16,2.16,0,0,0,.44-1.43,2.15,2.15,0,0,0-.44-1.42,1.5,1.5,0,0,0-1.23-.52A1.56,1.56,0,0,0,58,5.06a2.11,2.11,0,0,0-.45,1.43A2.07,2.07,0,0,0,58,7.92a1.74,1.74,0,0,0,2.46,0Z" fill="#2c3f99"/><path d="M68.68,8.23a.53.53,0,0,1,.11.34.68.68,0,0,1-.43.58,4,4,0,0,1-.92.38,4.09,4.09,0,0,1-1,.13,3,3,0,0,1-2.2-.81,3,3,0,0,1-.8-2.22A3.39,3.39,0,0,1,63.84,5a2.55,2.55,0,0,1,1-1.08,2.71,2.71,0,0,1,1.45-.39,2.38,2.38,0,0,1,1.86.76,2.9,2.9,0,0,1,.69,2c0,.32-.15.48-.43.48H64.7c.08,1.24.67,1.86,1.79,1.86a2.16,2.16,0,0,0,.76-.12,5.1,5.1,0,0,0,.69-.31,1.12,1.12,0,0,1,.2-.1.51.51,0,0,1,.27-.08A.32.32,0,0,1,68.68,8.23ZM65.2,4.91a2,2,0,0,0-.5,1.24h3.09a2,2,0,0,0-.41-1.25,1.34,1.34,0,0,0-1.06-.44A1.45,1.45,0,0,0,65.2,4.91Z" fill="#2c3f99"/><path d="M73.36,8.85a.44.44,0,0,1,.11.32.39.39,0,0,1-.19.36.78.78,0,0,1-.54.1l-.33,0A2.16,2.16,0,0,1,71,9a2.23,2.23,0,0,1-.48-1.55V4.65h-.72c-.35,0-.53-.15-.53-.46a.47.47,0,0,1,.14-.35.57.57,0,0,1,.39-.12h.72V2.48a.6.6,0,0,1,.16-.43.64.64,0,0,1,.44-.16.67.67,0,0,1,.45.16.56.56,0,0,1,.16.43V3.72h1.19a.57.57,0,0,1,.39.12.47.47,0,0,1,.14.35.43.43,0,0,1-.14.34.57.57,0,0,1-.39.12H71.69V7.56a1.23,1.23,0,0,0,.24.83,1,1,0,0,0,.71.3l.34,0A.63.63,0,0,1,73.36,8.85Z" fill="#2c3f99"/><path d="M38.85,17.92a.23.23,0,0,1,.06.16v5.36a.28.28,0,0,1-.07.21.21.21,0,0,1-.18.07.25.25,0,0,1-.19-.07.33.33,0,0,1-.06-.21V18.28H35.55v5.16a.27.27,0,0,1-.07.2.27.27,0,0,1-.37,0,.33.33,0,0,1-.06-.21V18.28h-1a.21.21,0,0,1-.2-.2.23.23,0,0,1,.06-.16.16.16,0,0,1,.14-.07h1v-.36a2.48,2.48,0,0,1,.48-1.62A2,2,0,0,1,37,15.21l.31,0h.09c.18,0,.27.07.27.2a.21.21,0,0,1-.06.16.33.33,0,0,1-.23.08l-.32,0a1.62,1.62,0,0,0-1.1.46,1.77,1.77,0,0,0-.38,1.24v.49h3.14A.19.19,0,0,1,38.85,17.92ZM39,15.54a.39.39,0,0,1,.13.32.39.39,0,0,1-.13.31.41.41,0,0,1-.3.12.44.44,0,0,1-.32-.12.42.42,0,0,1-.13-.31.43.43,0,0,1,.13-.32.44.44,0,0,1,.32-.12A.41.41,0,0,1,39,15.54Z" fill="#1fb24b"/><path d="M45.57,19.92v3.52c0,.19-.08.28-.25.28a.25.25,0,0,1-.19-.07.33.33,0,0,1-.06-.21V20a2,2,0,0,0-.38-1.35,1.51,1.51,0,0,0-1.2-.42,2,2,0,0,0-1.48.57,2.08,2.08,0,0,0-.56,1.52v3.16a.33.33,0,0,1-.06.21.25.25,0,0,1-.19.07.21.21,0,0,1-.18-.07.28.28,0,0,1-.07-.21V18c0-.19.08-.28.25-.28a.25.25,0,0,1,.18.07.33.33,0,0,1,.06.21v.89a1.93,1.93,0,0,1,.8-.89,2.45,2.45,0,0,1,1.22-.3C44.87,17.71,45.57,18.44,45.57,19.92Z" fill="#1fb24b"/><path d="M51.82,19.86v3.57a.33.33,0,0,1-.06.21.29.29,0,0,1-.19.07.26.26,0,0,1-.19-.08.27.27,0,0,1-.07-.2v-.84a1.93,1.93,0,0,1-.77.85,2.15,2.15,0,0,1-1.13.3,2.26,2.26,0,0,1-1-.22,2,2,0,0,1-.72-.62A1.5,1.5,0,0,1,47.4,22a1.36,1.36,0,0,1,.32-1,2.09,2.09,0,0,1,1.13-.52,12.5,12.5,0,0,1,2.22-.15h.24v-.51A1.89,1.89,0,0,0,51,18.59a1.37,1.37,0,0,0-1.08-.39,3.28,3.28,0,0,0-1,.15,2.77,2.77,0,0,0-.71.34l-.2.14a.45.45,0,0,1-.24.1.2.2,0,0,1-.15-.06.22.22,0,0,1-.07-.17q0-.22.42-.48a4,4,0,0,1,.92-.38,3.74,3.74,0,0,1,1-.13C51.15,17.71,51.82,18.42,51.82,19.86ZM50.38,23a1.79,1.79,0,0,0,.68-.71,2.09,2.09,0,0,0,.25-1V20.8h-.23a13,13,0,0,0-1.92.11,1.78,1.78,0,0,0-.93.34A1,1,0,0,0,48,22a1.16,1.16,0,0,0,.41.91,1.53,1.53,0,0,0,1,.35A1.85,1.85,0,0,0,50.38,23Z" fill="#1fb24b"/><path d="M58.46,19.92v3.52c0,.19-.09.28-.25.28a.25.25,0,0,1-.19-.07.33.33,0,0,1-.07-.21V20a2,2,0,0,0-.37-1.35,1.52,1.52,0,0,0-1.2-.42,2,2,0,0,0-1.48.57,2.08,2.08,0,0,0-.56,1.52v3.16a.33.33,0,0,1-.06.21.29.29,0,0,1-.38,0,.33.33,0,0,1-.06-.21V18c0-.19.08-.28.25-.28a.25.25,0,0,1,.18.07.33.33,0,0,1,.06.21v.89a1.93,1.93,0,0,1,.8-.89,2.42,2.42,0,0,1,1.22-.3C57.75,17.71,58.46,18.44,58.46,19.92Z" fill="#1fb24b"/><path d="M61.34,23.37a2.5,2.5,0,0,1-.93-1.05,3.6,3.6,0,0,1-.33-1.58,3.64,3.64,0,0,1,.33-1.59,2.47,2.47,0,0,1,.93-1.06,2.53,2.53,0,0,1,1.39-.38,3.43,3.43,0,0,1,.86.11,2.37,2.37,0,0,1,.75.36,2,2,0,0,1,.32.29.4.4,0,0,1,.09.25.24.24,0,0,1-.06.15.2.2,0,0,1-.15.06.3.3,0,0,1-.14-.05l-.18-.13a4.34,4.34,0,0,0-.65-.41,2.05,2.05,0,0,0-.83-.15,1.94,1.94,0,0,0-1.56.68,2.94,2.94,0,0,0-.56,1.89,2.71,2.71,0,0,0,.56,1.83,1.92,1.92,0,0,0,1.55.66,2.21,2.21,0,0,0,.86-.15,3.73,3.73,0,0,0,.68-.41.73.73,0,0,1,.31-.17.21.21,0,0,1,.2.2.35.35,0,0,1-.08.22c-.06.06-.17.16-.33.29a2.69,2.69,0,0,1-.76.37,2.9,2.9,0,0,1-.9.14A2.51,2.51,0,0,1,61.34,23.37Z" fill="#1fb24b"/><path d="M70.66,22.59a.2.2,0,0,1,.06.15.37.37,0,0,1-.09.23,1.17,1.17,0,0,1-.32.26,3.44,3.44,0,0,1-1.78.51,2.65,2.65,0,0,1-2.06-.8,3.11,3.11,0,0,1-.75-2.21,3.57,3.57,0,0,1,.33-1.58,2.51,2.51,0,0,1,1-1.06,2.57,2.57,0,0,1,1.41-.38,2.22,2.22,0,0,1,1.74.72,2.88,2.88,0,0,1,.63,2,.52.52,0,0,1-.08.31.41.41,0,0,1-.3.09H66.27a2.7,2.7,0,0,0,.59,1.82,2.13,2.13,0,0,0,1.64.63,2.65,2.65,0,0,0,1-.15,4.09,4.09,0,0,0,.73-.41,1,1,0,0,1,.33-.17A.17.17,0,0,1,70.66,22.59Zm-3.72-3.84a2.53,2.53,0,0,0-.66,1.59h4a2.48,2.48,0,0,0-.51-1.61,1.75,1.75,0,0,0-1.38-.55A2,2,0,0,0,66.94,18.75Z" fill="#1fb24b"/></g></g></svg>