<svg xmlns="http://www.w3.org/2000/svg" xmlns:xlink="http://www.w3.org/1999/xlink" preserveAspectRatio="xMidYMid" width="31" height="31" viewBox="0 0 31 31">
  <defs>
    <style>
      .cls-1 {
        fill: #fff;
        fill-rule: evenodd;
      }
    </style>
  </defs>
  <path d="M24.913,30.992 C23.623,30.992 22.065,30.669 20.351,30.023 C16.594,28.607 12.507,25.810 8.842,22.147 C5.177,18.483 2.377,14.397 0.960,10.642 C-0.328,7.228 -0.331,4.427 0.953,3.144 C1.137,2.960 1.325,2.762 1.519,2.558 C2.690,1.327 4.014,-0.058 5.768,0.004 C6.977,0.054 8.148,0.805 9.347,2.296 C12.891,6.701 11.293,8.271 9.444,10.091 L9.118,10.414 C8.815,10.716 8.244,12.116 13.561,17.430 C15.296,19.165 16.776,20.434 17.959,21.203 C18.703,21.686 20.035,22.418 20.582,21.872 L20.910,21.540 C22.729,19.697 24.300,18.104 28.704,21.644 C30.196,22.842 30.946,24.012 30.996,25.222 C31.068,26.974 29.672,28.300 28.439,29.469 C28.236,29.663 28.038,29.851 27.853,30.035 C27.216,30.672 26.197,30.992 24.913,30.992 ZM5.643,1.044 C4.396,1.044 3.271,2.228 2.275,3.276 C2.075,3.487 1.881,3.691 1.690,3.882 C0.734,4.836 0.831,7.345 1.936,10.276 C3.302,13.894 6.017,17.849 9.581,21.411 C13.144,24.971 17.098,27.684 20.720,29.048 C23.652,30.155 26.162,30.249 27.117,29.295 C27.307,29.105 27.512,28.911 27.722,28.712 C28.794,27.694 30.009,26.541 29.955,25.262 C29.919,24.384 29.279,23.438 28.052,22.453 C24.382,19.504 23.356,20.545 21.654,22.270 L21.320,22.607 C20.507,23.421 19.185,23.240 17.391,22.075 C16.147,21.266 14.610,19.951 12.824,18.165 C8.412,13.756 7.001,11.057 8.382,9.674 L8.714,9.346 C10.444,7.644 11.488,6.618 8.536,2.948 C7.548,1.723 6.603,1.083 5.724,1.045 C5.697,1.044 5.670,1.044 5.643,1.044 Z" class="cls-1"/>
</svg>
