<svg xmlns="http://www.w3.org/2000/svg" xmlns:xlink="http://www.w3.org/1999/xlink" preserveAspectRatio="xMidYMid" width="30" height="39" viewBox="0 0 30 39">
  <defs>
    <style>
      .cls-1 {
        fill: #fff;
        fill-rule: evenodd;
      }
    </style>
  </defs>
  <path d="M-0.000,5.243 L-0.000,33.771 C-0.000,36.256 2.372,38.739 4.766,38.979 C4.904,38.993 5.137,38.999 5.274,38.999 C7.074,38.999 8.661,37.868 9.895,36.959 C10.111,36.802 10.341,36.649 10.539,36.513 C12.278,35.310 14.005,34.026 15.664,32.785 C17.097,31.713 18.585,30.604 20.061,29.564 C21.430,28.598 22.791,27.613 24.147,26.628 L25.617,25.562 C27.968,23.922 30.000,22.505 30.000,19.505 C30.000,16.393 27.543,14.750 25.617,13.463 C25.328,13.253 25.032,13.045 24.736,12.837 C24.391,12.594 24.045,12.351 23.709,12.105 C20.747,9.926 17.845,7.799 14.897,5.730 C14.489,5.443 14.077,5.150 13.664,4.856 C12.586,4.089 11.470,3.296 10.360,2.567 C10.098,2.395 9.820,2.176 9.525,1.945 C8.414,1.078 7.031,-0.001 5.355,-0.001 C4.684,-0.001 3.846,0.177 3.248,0.524 C1.838,1.345 -0.000,3.072 -0.000,5.243 ZM3.082,5.243 C3.082,4.623 3.932,3.755 4.770,3.268 C4.905,3.189 5.122,3.154 5.260,3.154 C5.894,3.154 6.867,3.875 7.610,4.454 C7.966,4.732 8.327,4.995 8.671,5.221 C9.734,5.920 10.837,6.696 11.894,7.447 C12.312,7.744 12.734,8.040 13.148,8.331 C16.071,10.383 18.961,12.499 21.908,14.666 C22.261,14.926 22.627,15.182 22.990,15.437 C23.274,15.637 23.558,15.836 23.883,16.070 C25.982,17.474 26.917,18.303 26.917,19.506 C26.917,20.681 26.307,21.264 23.860,22.972 L22.365,24.056 C21.022,25.031 19.676,26.010 18.318,26.966 C16.807,28.032 15.307,29.152 13.857,30.237 C12.220,31.462 10.527,32.728 8.834,33.900 C8.615,34.052 8.384,34.221 8.144,34.398 C7.268,35.042 6.176,35.845 5.369,35.845 C5.332,35.845 5.103,35.843 5.065,35.839 C4.245,35.757 3.081,34.635 3.081,33.769 L3.081,5.243 L3.082,5.243 Z" class="cls-1"/>
</svg>
