<?xml version="1.0" encoding="UTF-8"?>
<svg width="24px" height="24px" viewBox="0 0 24 24" version="1.1" xmlns="http://www.w3.org/2000/svg" xmlns:xlink="http://www.w3.org/1999/xlink">
    <!-- Generator: Sketch 47.1 (45422) - http://www.bohemiancoding.com/sketch -->
    <title>facebook_logo_white_svg</title>
    <desc>Created with Sketch.</desc>
    <defs></defs>
    <g id="Spec" stroke="none" stroke-width="1" fill="none" fill-rule="evenodd">
        <g id="icons-svg" transform="translate(-18.000000, -55.000000)" fill="#FFFFFF">
            <path d="M40.676259,55 L19.3246403,55 C18.5930617,55 18,55.5930394 18,56.3245907 L18,77.6754093 C18,78.4069605 18.5930617,79 19.3246403,79 L30.8201439,79 L30.8201439,69.7062835 L27.692446,69.7062835 L27.692446,66.084117 L30.8201439,66.084117 L30.8201439,63.4124546 C30.8201439,60.3127506 32.7131295,58.6248642 35.4793165,58.6248642 C36.4128785,58.6216527 37.3459202,58.6693837 38.2742806,58.7678444 L38.2742806,62.0051332 L36.3561151,62.0051332 C34.852518,62.0051332 34.5575539,62.7200345 34.5575539,63.7685563 L34.5575539,66.0814193 L38.1438849,66.0814193 L37.6771582,69.7035857 L34.5602518,69.7035857 L34.5602518,79 L40.6753597,79 C41.4069383,79 42,78.4069605 42,77.6754093 L42,56.3245907 C42.0000002,55.5933905 41.4074864,55.0004964 40.676259,55 L40.676259,55 Z" id="facebook_logo_white"></path>
        </g>
    </g>
</svg>