<?xml version="1.0"?>
<svg xmlns="http://www.w3.org/2000/svg" id="Capa_1" enable-background="new 0 0 512 512" height="512px" viewBox="0 0 512 512" width="512px"><g><g><g><path d="m350.955 457.214c-4.142 0-7.5 3.358-7.5 7.5v32.286h-53.691v-12.703c0-4.142-3.358-7.5-7.5-7.5s-7.5 3.358-7.5 7.5v12.703h-43.901l12.164-12.164c9.294-9.294 14.412-21.65 14.412-34.794s-5.118-25.5-14.412-34.794c-17.25-17.25-44.583-18.945-63.799-4.938-19.217-14.002-46.552-12.31-63.799 4.938-9.294 9.293-14.412 21.65-14.412 34.794s5.118 25.5 14.412 34.794l12.164 12.164h-43.902v-12.703c0-4.142-3.358-7.5-7.5-7.5s-7.5 3.358-7.5 7.5v12.703h-53.691v-32.286c0-4.142-3.358-7.5-7.5-7.5s-7.5 3.358-7.5 7.5v39.786c0 4.142 3.358 7.5 7.5 7.5h343.455c4.142 0 7.5-3.358 7.5-7.5v-39.786c0-4.142-3.358-7.5-7.5-7.5zm-224.92 17.015c-6.46-6.46-10.019-15.051-10.019-24.188s3.558-17.727 10.019-24.188c13.124-13.123 34.644-13.292 47.974-.378 2.908 2.818 7.529 2.818 10.438 0 13.329-12.915 34.851-12.746 47.974.378 6.461 6.461 10.019 15.051 10.019 24.188s-3.558 17.727-10.019 24.188l-22.771 22.771h-60.844z" data-original="#000000" class="active-path" data-old_color="#000000" fill="#59D9B1"/><path d="m300.396 315.569-78.313-20.884v-32.112c25.332-14.12 43.033-40.342 45.224-70.795h2.835c17.504 0 31.744-14.24 31.744-31.744 0-8.109-3.06-15.514-8.082-21.131v-66.753c0-26.416-21.491-47.907-47.906-47.907h-4.845c-1.709-13.647-13.376-24.243-27.479-24.243h-60.61c-48.696 0-88.314 39.617-88.314 88.313v50.591c-5.021 5.617-8.081 13.022-8.081 21.131 0 17.503 14.24 31.744 31.744 31.744h2.835c2.191 30.453 19.892 56.676 45.224 70.796v32.111l-78.313 20.884c-34.184 9.115-58.059 40.19-58.059 75.569v38.486c0 4.142 3.358 7.5 7.5 7.5s7.5-3.358 7.5-7.5v-38.486c0-28.594 19.296-53.709 46.924-61.077l44.292-11.811c8.084 33.239 38.086 57.377 73.011 57.377s64.927-24.138 73.011-57.377l44.292 11.811c27.628 7.368 46.924 32.483 46.924 61.077v38.477c0 4.142 3.358 7.5 7.5 7.5s7.5-3.358 7.5-7.5v-38.477c.001-35.379-23.874-66.455-58.058-75.57zm-30.254-138.791h-2.602v-33.488h2.602c9.233 0 16.744 7.511 16.744 16.744s-7.511 16.744-16.744 16.744zm8.663-104.628v57.351c-2.756-.783-5.659-1.211-8.663-1.211h-6.994l-21.871-21.871v-67.175h4.622c18.144 0 32.906 14.761 32.906 32.906zm-207.236 87.885c0-9.233 7.511-16.744 16.744-16.744h2.602v33.488h-2.602c-9.232-.001-16.744-7.512-16.744-16.744zm34.346 25.345v-42.09h25.692c4.142 0 7.5-3.358 7.5-7.5s-3.358-7.5-7.5-7.5h-33.192-10.102c-3.003 0-5.907.428-8.663 1.211v-41.188c0-40.425 32.889-73.313 73.313-73.313h60.61c7.004 0 12.703 5.699 12.703 12.703v78.717l-12.233 12.233c-6.215 6.215-14.479 9.638-23.268 9.638h-24.133c-4.142 0-7.5 3.358-7.5 7.5s3.358 7.5 7.5 7.5h24.133c12.796 0 24.827-4.983 33.875-14.031l9.127-9.127 18.764 18.763v46.484c0 40.425-32.888 73.313-73.313 73.313s-73.313-32.888-73.313-73.313zm73.313 88.313c9.73 0 19.095-1.586 27.856-4.505v31.259c0 15.359-12.496 27.855-27.856 27.855-15.359 0-27.855-12.496-27.855-27.855v-31.259c8.76 2.92 18.125 4.505 27.855 4.505zm0 86.935c-28.067 0-52.164-19.474-58.519-46.242l16.732-4.462c4.327 19.084 21.413 33.379 41.786 33.379 20.374 0 37.46-14.295 41.787-33.379l16.732 4.462c-6.354 26.768-30.452 46.242-58.518 46.242z" data-original="#000000" class="active-path" data-old_color="#000000" fill="#59D9B1"/><path d="m413.585 16.884c-54.266 0-98.415 44.148-98.415 98.415 0 25.32 9.901 49.823 27.338 68.059l-11.489 24.749c-1.326 2.855-.727 6.235 1.5 8.461 1.438 1.438 3.357 2.197 5.305 2.197 1.068 0 2.145-.228 3.156-.697l30.12-13.982c13.184 6.309 27.791 9.628 42.485 9.628 54.266 0 98.415-44.148 98.415-98.415s-44.148-98.415-98.415-98.415zm0 181.829c-13.528 0-26.965-3.316-38.857-9.59-1.093-.577-2.295-.867-3.5-.867-1.077 0-2.155.232-3.158.697l-14.815 6.877 5.078-10.939c1.365-2.94.687-6.425-1.682-8.638-17.077-15.957-26.481-37.605-26.481-60.956 0-45.995 37.419-83.415 83.415-83.415s83.415 37.422 83.415 83.417-37.419 83.414-83.415 83.414z" data-original="#000000" class="active-path" data-old_color="#000000" fill="#59D9B1"/><path d="m464.227 76.521c-13.666-13.666-35.152-15.268-50.642-4.698-15.49-10.569-36.975-8.967-50.642 4.698-7.522 7.522-11.665 17.523-11.665 28.161s4.143 20.639 11.665 28.161l45.338 45.338c1.464 1.464 3.384 2.197 5.303 2.197s3.839-.732 5.303-2.197l45.338-45.338c15.53-15.528 15.53-40.793.002-56.322zm-10.606 45.715-40.035 40.035-40.035-40.035c-4.689-4.689-7.271-10.923-7.271-17.554s2.582-12.865 7.271-17.554c4.812-4.812 11.18-7.224 17.55-7.224 6.239 0 12.48 2.313 17.266 6.95 2.908 2.818 7.529 2.818 10.438 0 9.674-9.374 25.292-9.249 34.816.274 9.679 9.68 9.679 25.429 0 35.108z" data-original="#000000" class="active-path" data-old_color="#000000" fill="#59D9B1"/></g></g></g> </svg>
