<?xml version="1.0"?>
<svg xmlns="http://www.w3.org/2000/svg" xmlns:xlink="http://www.w3.org/1999/xlink" version="1.1" id="Layer_1" x="0px" y="0px" viewBox="0 0 512 512" style="enable-background:new 0 0 512 512;" xml:space="preserve" width="512px" height="512px"><g><g>
	<path d="M227.293,120.16c-2.929-2.929-7.678-2.929-10.606,0l-79.355,79.355c-1.407,1.406-2.197,3.314-2.197,5.303   s0.79,3.897,2.197,5.303l147.375,147.375c1.464,1.464,3.384,2.197,5.303,2.197s3.839-0.732,5.303-2.197l79.355-79.355   c1.407-1.406,2.197-3.314,2.197-5.303s-0.79-3.897-2.197-5.303L227.293,120.16z M221.99,136.07l63.081,63.081l-6.985,6.985   c-9.986-6.383-21.608-6.437-28.659,0.614c-11.852,11.853-4.425,26.707,0.013,35.582c6.015,12.03,5.732,15.357,2.822,18.267   c-1.216,1.216-3.592,0.952-4.558,0.781c-3.004-0.53-6.258-2.364-8.925-5.032c-5.413-5.413-6.133-11.602-4.251-13.484   c2.929-2.929,2.929-7.678,0-10.606c-2.929-2.929-7.678-2.929-10.606,0c-7.051,7.05-6.997,18.673-0.614,28.659l-6.984,6.984   l-63.081-63.081L221.99,136.07z M290.01,341.587l-63.081-63.081l6.923-6.923c4.986,3.276,10.399,4.971,15.464,4.971   c5.158,0,9.953-1.75,13.553-5.351c11.852-11.852,4.425-26.707-0.012-35.582c-6.015-12.029-5.731-15.357-2.822-18.267   c1.881-1.884,8.07-1.162,13.484,4.251c2.668,2.668,4.502,5.921,5.032,8.926c0.17,0.965,0.435,3.341-0.781,4.557   c-2.929,2.929-2.929,7.678,0,10.607c2.93,2.929,7.678,2.928,10.607,0c4.366-4.366,6.169-10.843,4.946-17.771   c-0.681-3.859-2.264-7.698-4.576-11.237l6.932-6.932l63.081,63.081L290.01,341.587z" data-original="#000000" class="active-path" data-old_color="#000000" fill="#59D9B1"/>
	<path d="M221.625,181.781c2.929-2.929,2.929-7.678,0-10.606c-2.928-2.93-7.677-2.929-10.606,0l-22.673,22.673   c-2.929,2.929-2.929,7.678,0,10.606c1.464,1.465,3.384,2.197,5.303,2.197c1.919,0,3.839-0.732,5.303-2.197L221.625,181.781z" data-original="#000000" class="active-path" data-old_color="#000000" fill="#59D9B1"/>
	<path d="M290.375,295.876c-2.929,2.929-2.929,7.678,0,10.606c1.464,1.465,3.384,2.197,5.303,2.197c1.919,0,3.839-0.732,5.303-2.197   l22.673-22.673c2.929-2.929,2.929-7.678,0-10.606c-2.929-2.929-7.678-2.929-10.606,0L290.375,295.876z" data-original="#000000" class="active-path" data-old_color="#000000" fill="#59D9B1"/>
	<path d="M398.822,100.178l-15.02-6.675c-14.646-6.509-24.109-21.071-24.109-37.098V45.832c9.308-3.139,16.032-11.946,16.032-22.3   C375.726,10.557,365.169,0,352.193,0H159.807c-12.976,0-23.532,10.557-23.532,23.532c0,10.353,6.724,19.16,16.032,22.3v10.573   c0,16.027-9.463,30.589-24.109,37.098l-15.02,6.675c-20.057,8.914-33.017,28.856-33.017,50.805v305.421   c0,30.656,24.941,55.597,55.597,55.597h240.483c30.656,0,55.597-24.94,55.597-55.597V150.982   C431.839,129.034,418.879,109.092,398.822,100.178z M167.307,432.355v-16.032c0-0.285,0.231-0.516,0.516-0.516h48.097   c0.285,0,0.516,0.231,0.516,0.516v16.032c0,0.285-0.231,0.516-0.516,0.516h-48.097C167.538,432.871,167.307,432.64,167.307,432.355   z M272.548,447.871V497h-33.097v-49.129H272.548z M263.5,432.355v-16.032c0-0.285,0.231-0.516,0.516-0.516h48.097   c0.285,0,0.516,0.231,0.516,0.516v16.032c0,0.285-0.231,0.516-0.516,0.516h-48.097C263.731,432.871,263.5,432.64,263.5,432.355z    M287.548,479.936h81.193V497h-81.193V479.936z M368.742,464.936h-81.193v-17.064h81.193V464.936z M224.452,447.871v17.064h-40.597   c-4.142,0-7.5,3.358-7.5,7.5s3.358,7.5,7.5,7.5h40.597V497h-81.193v-17.064h8.533c4.142,0,7.5-3.358,7.5-7.5s-3.358-7.5-7.5-7.5   h-8.533v-17.064H224.452z M416.839,456.403c0,19.822-14.284,36.361-33.097,39.891v-55.923c0-4.142-3.358-7.5-7.5-7.5h-48.639   c0.006-0.173,0.026-0.342,0.026-0.516v-16.032c0-8.556-6.96-15.516-15.516-15.516h-48.097c-8.556,0-15.516,6.96-15.516,15.516   v16.032c0,0.174,0.02,0.343,0.026,0.516h-17.117c0.006-0.173,0.026-0.342,0.026-0.516v-16.032c0-8.556-6.96-15.516-15.516-15.516   h-48.097c-8.556,0-15.516,6.96-15.516,15.516v16.032c0,0.174,0.02,0.343,0.026,0.516h-16.574c-4.142,0-7.5,3.358-7.5,7.5v55.923   c-18.813-3.53-33.097-20.069-33.097-39.891V150.982c0-16.027,9.463-30.588,24.109-37.098l15.02-6.675   c20.057-8.915,33.017-28.856,33.017-50.805v-9.34h136.79c4.142,0,7.5-3.358,7.5-7.5s-3.358-7.5-7.5-7.5h-144.29   c-4.705,0-8.532-3.828-8.532-8.532S155.102,15,159.807,15h192.387c4.705,0,8.532,3.828,8.532,8.532s-3.828,8.532-8.532,8.532   h-16.031c-4.142,0-7.5,3.358-7.5,7.5s3.358,7.5,7.5,7.5h8.531v9.34c0,21.949,12.96,41.891,33.017,50.805l15.02,6.675   c14.646,6.509,24.109,21.071,24.109,37.098V456.403z" data-original="#000000" class="active-path" data-old_color="#000000" fill="#59D9B1"/>
	<path d="M151.041,319.38c-15.688,15.688-19.422,36.53-8.502,47.45c4.219,4.219,9.918,6.25,16.23,6.25   c10.025,0,21.594-5.126,31.22-14.753c15.688-15.688,19.422-36.53,8.502-47.45C187.572,299.957,166.729,303.691,151.041,319.38z    M189.259,331.155c-1.275,5.526-4.875,11.564-9.877,16.566s-11.04,8.602-16.566,9.877c-4.285,0.989-7.809,0.488-9.671-1.375   c-4.186-4.186-1.439-16.296,8.502-26.237c5.002-5.002,11.04-8.602,16.566-9.877c1.443-0.333,2.799-0.497,4.035-0.497   c2.435,0,4.401,0.637,5.637,1.872C189.747,323.346,190.248,326.871,189.259,331.155z" data-original="#000000" class="active-path" data-old_color="#000000" fill="#59D9B1"/>
	<path d="M294.014,148.591c9.627,9.628,21.195,14.753,31.22,14.753c6.311,0,12.012-2.032,16.23-6.25   c10.92-10.92,7.185-31.763-8.502-47.45s-36.53-19.422-47.45-8.502c-5.599,5.598-7.561,14.218-5.384,23.65   C282.045,133.102,286.977,141.554,294.014,148.591z M296.119,111.748c1.235-1.235,3.202-1.872,5.636-1.872   c1.236,0,2.593,0.164,4.035,0.497c5.526,1.275,11.564,4.875,16.566,9.877c9.941,9.941,12.688,22.051,8.502,26.237   c-1.862,1.862-5.386,2.363-9.671,1.375c-5.526-1.275-11.564-4.875-16.566-9.877s-8.602-11.04-9.877-16.566   C293.755,117.135,294.256,113.61,296.119,111.748z" data-original="#000000" class="active-path" data-old_color="#000000" fill="#59D9B1"/>
</g></g> </svg>
