<?xml version="1.0" encoding="utf-8"?>
<!-- Generator: Adobe Illustrator 23.0.1, SVG Export Plug-In . SVG Version: 6.00 Build 0)  -->
<svg version="1.1" id="Capa_1" xmlns="http://www.w3.org/2000/svg" xmlns:xlink="http://www.w3.org/1999/xlink" x="0px" y="0px"
	 viewBox="0 0 126 22" style="enable-background:new 0 0 126 22;" xml:space="preserve">
<style type="text/css">
	.st0{fill:none;}
	.st1{fill:#3F44C9;}
	.st2{fill:#FFFFFF;}
</style>
<g>
	<rect x="26.2" y="4.6" class="st0" width="100.6" height="12.1"/>
	<path d="M31,15.8h-3.7V4.9H31c0.9,0,1.7,0.1,2.3,0.3s1.1,0.5,1.4,1c0.3,0.5,0.6,1,0.7,1.6c0.1,0.6,0.2,1.4,0.2,2.4
		s-0.1,1.8-0.2,2.4s-0.3,1.2-0.7,1.7c-0.3,0.5-0.8,0.9-1.4,1.1C32.8,15.7,32,15.8,31,15.8z M33.4,11.5c0-0.3,0-0.8,0-1.4
		s0-1.1-0.1-1.4c0-0.4-0.1-0.7-0.3-1s-0.4-0.5-0.7-0.6C32,6.9,31.6,6.8,31,6.8h-1.5v7H31c0.8,0,1.4-0.2,1.7-0.6
		C33.1,12.9,33.3,12.3,33.4,11.5z"/>
	<path d="M37.4,6.8V4.6h2.1v2.2H37.4z M37.4,15.8v-8h2.1v8H37.4z"/>
	<path d="M48.8,16.8c0,0.9-0.4,1.6-1.1,2c-0.7,0.4-1.7,0.7-2.9,0.7S42.7,19.3,42,19c-0.6-0.3-1-0.9-1-1.7c0-0.7,0.4-1.3,1.2-1.9
		c-0.4-0.3-0.6-0.7-0.6-1.2c0-0.2,0.2-0.6,0.5-1.1l0.1-0.2c-0.7-0.5-1.1-1.3-1.1-2.3s0.3-1.8,0.9-2.2c0.6-0.5,1.4-0.7,2.4-0.7
		c0.5,0,0.9,0.1,1.4,0.2h0.3l2.6-0.1v1.7l-1.2-0.1c0.2,0.4,0.4,0.7,0.4,1.1c0,1.1-0.3,1.8-0.8,2.2s-1.4,0.6-2.6,0.6
		c-0.2,0-0.5,0-0.7-0.1c-0.1,0.3-0.2,0.5-0.2,0.7s0.1,0.3,0.3,0.4c0.2,0.1,0.6,0.1,1.3,0.1c1.3,0,2.3,0.2,2.8,0.5
		S48.8,15.9,48.8,16.8z M43.2,17c0,0.5,0.6,0.7,1.7,0.7c1.1,0,1.7-0.3,1.7-0.8c0-0.3-0.1-0.5-0.3-0.6s-0.6-0.1-1.2-0.1l-1.4-0.1
		C43.4,16.4,43.2,16.7,43.2,17z M43.4,10.5c0,0.8,0.4,1.2,1.2,1.2s1.2-0.4,1.2-1.2s-0.4-1.2-1.2-1.2S43.4,9.7,43.4,10.5z"/>
	<path d="M50.1,6.8V4.6h2.1v2.2H50.1z M50.1,15.8v-8h2.1v8H50.1z"/>
	<path d="M58.6,9.6h-2v3.3c0,0.3,0,0.5,0,0.7s0.1,0.2,0.2,0.3c0.1,0.1,0.3,0.1,0.5,0.1h1.2l0.1,1.7C57.9,15.9,57.4,16,57,16
		c-1,0-1.6-0.2-2-0.6s-0.5-1.2-0.5-2.4V9.6h-0.9V7.8h0.9V5.6h2.1v2.2h2V9.6z"/>
	<path d="M66.2,10.3v3.3c0,0.3,0.1,0.4,0.1,0.5c0.1,0.1,0.2,0.2,0.4,0.2L66.6,16c-0.5,0-1,0-1.3-0.1s-0.7-0.2-1-0.4
		C63.6,15.8,62.8,16,62,16c-1.7,0-2.5-0.9-2.5-2.6c0-0.9,0.2-1.5,0.7-1.8s1.2-0.6,2.1-0.6l1.7-0.1v-0.5c0-0.3-0.1-0.6-0.2-0.7
		c-0.1-0.1-0.4-0.2-0.7-0.2l-3,0.1L60,8.1c1.1-0.3,2.2-0.5,3.3-0.5c1.1,0,1.8,0.2,2.2,0.6C65.9,8.7,66.2,9.4,66.2,10.3z M62.6,12.4
		c-0.6,0.1-0.9,0.4-0.9,1s0.3,0.9,0.8,0.9c0.4,0,0.8-0.1,1.3-0.2L64,14v-1.7L62.6,12.4z"/>
	<path d="M68.3,15.8V4.6h2.1v11.2C70.4,15.8,68.3,15.8,68.3,15.8z"/>
	<path d="M75.3,15.8l2.4-10.9H82l2.4,10.9h-2.2l-0.4-2H78l-0.4,2H75.3z M79.5,6.7l-1.1,5.2h3l-1.1-5.2H79.5z"/>
	<path d="M92.8,16.8c0,0.9-0.4,1.6-1.1,2s-1.7,0.7-2.9,0.7S86.7,19.3,86,19c-0.6-0.3-1-0.9-1-1.7c0-0.7,0.4-1.3,1.2-1.9
		c-0.4-0.3-0.6-0.7-0.6-1.2c0-0.2,0.2-0.6,0.5-1.1l0.1-0.2c-0.7-0.5-1.1-1.3-1.1-2.3s0.3-1.8,0.9-2.2c0.6-0.5,1.4-0.7,2.4-0.7
		c0.5,0,0.9,0.1,1.4,0.2h0.3l2.6-0.1v1.7l-1.2-0.1c0.2,0.4,0.4,0.7,0.4,1.1c0,1.1-0.3,1.8-0.8,2.2s-1.4,0.6-2.6,0.6
		c-0.2,0-0.5,0-0.7-0.1c-0.1,0.3-0.2,0.5-0.2,0.7s0.1,0.3,0.3,0.4s0.6,0.1,1.3,0.1c1.3,0,2.3,0.2,2.8,0.5S92.8,15.9,92.8,16.8z
		 M87.3,17c0,0.5,0.6,0.7,1.7,0.7s1.7-0.3,1.7-0.8c0-0.3-0.1-0.5-0.3-0.6s-0.6-0.1-1.2-0.1l-1.4-0.1C87.4,16.4,87.3,16.7,87.3,17z
		 M87.4,10.5c0,0.8,0.4,1.2,1.2,1.2c0.8,0,1.2-0.4,1.2-1.2s-0.4-1.2-1.2-1.2S87.4,9.7,87.4,10.5z"/>
	<path d="M96.2,13.8c0.3,0.2,0.6,0.3,1.1,0.3c1,0,1.9,0,2.7-0.1h0.4v1.6c-1.2,0.3-2.3,0.4-3.3,0.4c-1.2,0-2.1-0.3-2.6-1
		c-0.5-0.6-0.8-1.7-0.8-3.1c0-2.9,1.2-4.3,3.5-4.3s3.5,1.2,3.5,3.6l-0.2,1.5h-4.7C95.9,13.2,96,13.6,96.2,13.8z M98.6,11.1
		c0-0.6-0.1-1.1-0.3-1.3c-0.2-0.3-0.6-0.4-1.1-0.4s-0.9,0.1-1.1,0.4c-0.2,0.3-0.3,0.7-0.3,1.3H98.6z"/>
	<path d="M104.4,15.8h-2.1v-8h2.1v0.4c0.7-0.4,1.4-0.6,2-0.6c1.1,0,1.8,0.3,2.2,0.9s0.6,1.6,0.6,2.9v4.3H107v-4.3
		c0-0.7-0.1-1.2-0.2-1.5c-0.2-0.3-0.5-0.5-1-0.5c-0.4,0-0.9,0.1-1.3,0.2l-0.2,0.1L104.4,15.8L104.4,15.8z"/>
	<path d="M114.1,7.6c0.6,0,1.3,0.1,2.1,0.3l0.4,0.1l-0.1,1.7c-0.8-0.1-1.5-0.1-1.9-0.1c-0.7,0-1.2,0.2-1.5,0.5
		c-0.2,0.3-0.4,0.9-0.4,1.8s0.1,1.5,0.4,1.8c0.2,0.3,0.7,0.5,1.5,0.5l1.9-0.1l0.1,1.7c-1.1,0.2-2,0.3-2.6,0.3c-1.2,0-2-0.3-2.6-1
		c-0.5-0.7-0.8-1.7-0.8-3.2s0.3-2.5,0.8-3.2C112,7.9,112.9,7.6,114.1,7.6z"/>
	<path d="M117.5,7.8h2.1l1.5,6.2h0.4l1.5-6.2h2.1l-2.8,11.4h-2.1l0.9-3.4h-1.5L117.5,7.8z"/>
</g>
<circle class="st1" cx="10.4" cy="11" r="10"/>
<g>
	<rect x="6.1" y="5.3" class="st0" width="10" height="11.2"/>
	<path class="st2" d="M10.6,15.7H7.2V5.6h3.4c0.8,0,1.6,0.1,2.1,0.3c0.6,0.2,1,0.5,1.3,0.9s0.6,0.9,0.6,1.5c0.1,0.6,0.2,1.3,0.2,2.2
		c0,0.9-0.1,1.7-0.2,2.2c-0.1,0.6-0.3,1.1-0.6,1.6c-0.4,0.5-0.7,0.8-1.3,1C12.2,15.6,11.5,15.7,10.6,15.7z M12.8,11.7
		c0-0.3,0-0.7,0-1.3s0-1-0.1-1.3c0-0.4-0.1-0.6-0.3-0.9c-0.2-0.3-0.4-0.5-0.6-0.6s-0.6-0.2-1.2-0.2H9.2V14h1.4
		c0.7,0,1.3-0.2,1.6-0.6C12.5,13.1,12.7,12.6,12.8,11.7z"/>
</g>
</svg>
