<svg xmlns="http://www.w3.org/2000/svg" width="24.837" height="25.39" viewBox="0 0 24.837 25.39">
  <g id="edit" transform="translate(0.05 0.05)">
    <g id="Group_336" data-name="Group 336" transform="translate(0 0)">
      <g id="Group_335" data-name="Group 335">
        <path id="Path_107" data-name="Path 107" d="M26.212,3.871a.61.61,0,0,0,.61-.61V1.335A1.336,1.336,0,0,0,25.488,0H12.574a.611.611,0,0,0-.432.179L7.086,5.236a.611.611,0,0,0-.179.432V23.955A1.337,1.337,0,0,0,8.242,25.29H25.488a1.336,1.336,0,0,0,1.334-1.335v-9.32a.61.61,0,1,0-1.221,0v9.32a.114.114,0,0,1-.113.114H8.242a.114.114,0,0,1-.114-.114V6.278H11.85a1.336,1.336,0,0,0,1.334-1.334V1.221h12.3a.114.114,0,0,1,.113.114V3.261A.61.61,0,0,0,26.212,3.871ZM11.964,4.943a.114.114,0,0,1-.114.114H8.991l2.972-2.973Z" transform="translate(-6.907)" fill="#ffaf29" stroke="#ffaf29" stroke-width="0.1"/>
      </g>
    </g>
    <g id="Group_338" data-name="Group 338" transform="translate(4.164 3.637)">
      <g id="Group_337" data-name="Group 337">
        <path id="Path_108" data-name="Path 108" d="M111.041,74.952l-.718-.718a2.068,2.068,0,0,0-2.921,0l-5.7,5.7H91.811a.61.61,0,1,0,0,1.221h8.668L96.806,84.83H91.811a.61.61,0,1,0,0,1.221h3.773l-.01.01a.61.61,0,0,0-.157.268l-.943,3.4H91.811a.61.61,0,1,0,0,1.221H94.94s.134-.015.153-.02l3.853-1.069a.61.61,0,0,0,.268-.157l11.827-11.827A2.068,2.068,0,0,0,111.041,74.952ZM95.817,89.458l.5-1.794,1.3,1.3ZM98.782,88.4,96.87,86.492l9.763-9.763,1.913,1.913Zm11.4-11.4-.769.769L107.5,75.866l.769-.769a.845.845,0,0,1,1.194,0l.718.718A.845.845,0,0,1,110.178,77.01Z" transform="translate(-91.201 -73.63)" fill="#ffaf29" stroke="#ffaf29" stroke-width="0.1"/>
      </g>
    </g>
  </g>
</svg>
