<svg xmlns="http://www.w3.org/2000/svg" width="25.568" height="24.457" viewBox="0 0 25.568 24.457">
  <g id="logout" transform="translate(0 0)">
    <path id="Path_104" data-name="Path 104" d="M166.285,220.667H150.166a.834.834,0,1,1,0-1.667h16.119a.834.834,0,1,1,0,1.667Zm0,0" transform="translate(-141.55 -207.605)" fill="#ffaf29"/>
    <path id="Path_105" data-name="Path 105" d="M154.62,144.214a.827.827,0,0,1-.589-.244l-4.447-4.447a.834.834,0,0,1,0-1.18l4.447-4.447a.834.834,0,1,1,1.18,1.179l-3.857,3.857,3.857,3.857a.833.833,0,0,1-.59,1.423Zm0,0" transform="translate(-141.558 -126.705)" fill="#ffaf29"/>
    <path id="Path_106" data-name="Path 106" d="M12.228,24.789a12.228,12.228,0,1,1,11.381-16.7.834.834,0,1,1-1.552.61,10.56,10.56,0,1,0,0,7.727.834.834,0,1,1,1.552.61,12.166,12.166,0,0,1-11.381,7.754Zm0,0" transform="translate(0 -0.332)" fill="#ffaf29"/>
  </g>
</svg>
