<?xml version="1.0" encoding="utf-8"?>
<!-- Generator: Adobe Illustrator 13.0.0, SVG Export Plug-In . SVG Version: 6.00 Build 14948)  -->
<!DOCTYPE svg PUBLIC "-//W3C//DTD SVG 1.1//EN" "http://www.w3.org/Graphics/SVG/1.1/DTD/svg11.dtd">
<svg version="1.1" id="Layer_1" xmlns="http://www.w3.org/2000/svg" xmlns:xlink="http://www.w3.org/1999/xlink" x="0px" y="0px"
	 width="100px" height="100px" viewBox="0 0 100 100" enable-background="new 0 0 100 100" xml:space="preserve">
<path fill="#1B1B1B" d="M59.057,42.75c-1.582,0-2.371,1.466-2.371,4.396v8.12c0.027,0.469,0.091,0.896,0.091,1.396
	c0,0.671-0.058,1.264-0.091,1.891v7.162c0,1.425,0.163,2.535,0.491,3.324c0.327,0.792,0.974,1.188,1.938,1.188
	c0.925,0,1.523-0.424,1.793-1.273c0.271-0.847,0.405-2.083,0.405-3.702v-17.99c0-1.464-0.135-2.583-0.405-3.355
	C60.638,43.137,60.02,42.75,59.057,42.75z M46.307,32.252c0-0.655-0.183-1.176-0.549-1.563c-0.367-0.385-0.878-0.578-1.532-0.578
	c-0.772,0-1.351,0.212-1.736,0.637c-0.385,0.425-0.578,1.003-0.578,1.735c0,1.62,0.926,3.297,2.777,5.033l1.703,1.634v-3.485h-0.025
	L46.307,32.252z M50,0C22.388,0,0,22.388,0,50.002C0,77.618,22.388,100,50,100C77.617,100,100,77.618,100,50.002
	C100,22.388,77.617,0,50,0z M71.55,62.938c0,3.318-0.193,6.026-0.577,8.128c-0.386,2.103-1.235,3.799-2.545,5.09
	c-1.313,1.294-3.297,1.938-5.958,1.938c-2.545,0-4.474-0.712-5.784-2.141v10.124H46.39V71.489c-0.399,0.027-0.759,0.098-1.182,0.098
	c-4.512,0-7.771-1.118-9.776-3.355c-2.006-2.236-3.007-5.842-3.007-10.817v-4.857H42.2v6.187c0,2.471,0.79,3.704,2.371,3.704
	c0.866,0,1.467-0.257,1.819-0.755v-6.578c-0.012-0.03-0.015-0.07-0.025-0.101c-0.387-1.061-0.878-1.946-1.475-2.661
	c-0.599-0.713-1.669-1.822-3.21-3.325l-4.281-4.28c-3.317-3.24-4.975-6.826-4.975-10.76c0-4.242,0.973-7.471,2.92-9.689
	c1.947-2.218,4.792-3.327,8.532-3.327c4.472,0,7.694,1.187,9.661,3.558c1.967,2.372,2.949,6.083,2.949,11.136h-0.021l0.063,2.046
	c1.465-1.813,3.646-2.886,6.229-2.886c3.276,0,5.563,1.099,6.853,3.297c1.293,2.197,1.938,5.245,1.938,9.139V62.938z"/>
</svg>
