<?xml version="1.0" encoding="utf-8"?>
<!-- Generator: Adobe Illustrator 13.0.0, SVG Export Plug-In . SVG Version: 6.00 Build 14948)  -->
<!DOCTYPE svg PUBLIC "-//W3C//DTD SVG 1.1//EN" "http://www.w3.org/Graphics/SVG/1.1/DTD/svg11.dtd">
<svg version="1.1" id="Layer_1" xmlns="http://www.w3.org/2000/svg" xmlns:xlink="http://www.w3.org/1999/xlink" x="0px" y="0px"
	 width="34px" height="34px" viewBox="0 0 34 34" enable-background="new 0 0 34 34" xml:space="preserve">
<g>
	<circle fill="#FFFFFF" cx="17" cy="17" r="17"/>
	<g>
		<path fill="#1B1B1B" d="M25.234,13.533c-0.223-0.529-0.5-1.039-0.822-1.514c-0.322-0.473-0.688-0.916-1.094-1.318
			c-0.402-0.402-0.846-0.768-1.32-1.088c-0.479-0.32-0.99-0.598-1.52-0.822c-0.539-0.225-1.105-0.4-1.682-0.518
			C18.211,8.152,17.604,8.092,17,8.092c-0.607,0-1.213,0.061-1.801,0.182c-0.575,0.117-1.14,0.293-1.681,0.518
			c-0.528,0.225-1.041,0.502-1.52,0.822c-0.471,0.32-0.917,0.686-1.322,1.088c-0.403,0.402-0.771,0.846-1.089,1.318
			c-0.323,0.475-0.601,0.984-0.826,1.514c-0.229,0.535-0.403,1.102-0.521,1.674c-0.12,0.584-0.181,1.189-0.181,1.791
			c0,0.605,0.061,1.209,0.181,1.795c0.118,0.57,0.293,1.135,0.521,1.674c0.226,0.525,0.503,1.037,0.826,1.514
			c0.317,0.473,0.686,0.912,1.089,1.318c0.405,0.402,0.852,0.768,1.322,1.082c0.479,0.324,0.991,0.6,1.52,0.824
			c0.541,0.229,1.106,0.402,1.681,0.52c0.588,0.119,1.193,0.182,1.801,0.182c0.604,0,1.21-0.063,1.796-0.182
			c0.576-0.117,1.143-0.291,1.682-0.52c0.529-0.225,1.041-0.5,1.52-0.824c0.475-0.314,0.918-0.68,1.32-1.082
			c0.406-0.406,0.771-0.846,1.094-1.318c0.322-0.477,0.6-0.988,0.822-1.514c0.229-0.539,0.406-1.104,0.521-1.674
			c0.121-0.586,0.184-1.189,0.184-1.795c0-0.602-0.063-1.207-0.184-1.791C25.641,14.635,25.463,14.068,25.234,13.533z M16.999,9.393
			c1.933,0,3.699,0.715,5.042,1.896c-0.02,0.031-1.105,1.68-3.988,2.756c-1.304-2.389-2.738-4.287-2.851-4.438
			C15.778,9.469,16.379,9.393,16.999,9.393z M15.17,9.613l-0.002,0.002c0,0-0.008,0.004-0.021,0.004
			C15.153,9.619,15.163,9.615,15.17,9.613z M13.741,10.121c0.103,0.135,1.513,2.041,2.835,4.381
			c-3.665,0.971-6.847,0.934-7.049,0.928C10.024,13.074,11.613,11.119,13.741,10.121z M11.318,22.078
			c0.001,0.002,0.002,0.002,0.002,0.002S11.319,22.08,11.318,22.078z M11.317,22.078c-1.214-1.346-1.953-3.127-1.953-5.08
			c0-0.08,0.005-0.16,0.007-0.24c0.135,0.004,3.906,0.088,7.838-1.084c0.217,0.426,0.428,0.861,0.621,1.293
			c-0.104,0.029-0.203,0.061-0.303,0.09C13.41,18.385,11.32,22.074,11.317,22.078z M12.307,22.996c0,0-0.068-0.053-0.17-0.133
			c0.054,0.045,0.119,0.078,0.175,0.121C12.312,22.986,12.307,22.996,12.307,22.996z M17,24.605c-1.771,0-3.393-0.613-4.688-1.621
			c0.056-0.119,1.546-3.201,5.984-4.74c0.02-0.006,0.033-0.012,0.051-0.018c1.074,2.781,1.52,5.111,1.631,5.775
			C19.064,24.393,18.055,24.605,17,24.605z M21.264,23.307c-0.076-0.459-0.484-2.689-1.484-5.432c2.465-0.395,4.6,0.281,4.756,0.332
			C24.197,20.326,22.979,22.154,21.264,23.307z M19.314,16.674c-0.055-0.131-0.109-0.26-0.166-0.393
			c-0.16-0.373-0.328-0.742-0.508-1.104c3.016-1.225,4.24-2.99,4.254-3.01c1.072,1.295,1.717,2.949,1.736,4.754
			C24.52,16.898,21.938,16.346,19.314,16.674z"/>
		<path fill="#1B1B1B" d="M15.17,9.613c-0.008,0.002-0.018,0.006-0.023,0.006c0.014,0,0.021-0.004,0.021-0.004L15.17,9.613z"/>
		<path fill="#1B1B1B" d="M12.307,22.996c0,0,0.005-0.01,0.005-0.012c-0.056-0.043-0.121-0.076-0.175-0.121
			C12.238,22.943,12.307,22.996,12.307,22.996z"/>
	</g>
</g>
</svg>
