<?xml version="1.0" encoding="utf-8"?>
<!-- Generator: Adobe Illustrator 13.0.0, SVG Export Plug-In . SVG Version: 6.00 Build 14948)  -->
<!DOCTYPE svg PUBLIC "-//W3C//DTD SVG 1.1//EN" "http://www.w3.org/Graphics/SVG/1.1/DTD/svg11.dtd">
<svg version="1.1" id="Layer_1" xmlns="http://www.w3.org/2000/svg" xmlns:xlink="http://www.w3.org/1999/xlink" x="0px" y="0px"
	 width="34px" height="34px" viewBox="0 0 34 34" enable-background="new 0 0 34 34" xml:space="preserve">
<g>
	<circle fill="#FFFFFF" cx="17" cy="17" r="17"/>
	<g>
		<path fill="#1B1B1B" d="M20.058,8.094h-5.271c-2.673,0-4.903,1.963-4.903,4.125c0,2.209,1.465,3.969,3.98,3.969
			c0.174,0,0.345-0.01,0.511-0.021c-0.164,0.313-0.279,0.66-0.279,1.023c0,0.613,0.338,0.963,0.757,1.371
			c-0.316,0-0.622,0.008-0.956,0.008c-3.062,0-5.206,2.098-5.206,4.113c0,1.984,2.584,3.227,5.646,3.227
			c3.491,0,5.636-1.975,5.636-3.959c0-1.592-0.344-2.391-2.045-3.66c-0.488-0.367-1.551-1.117-1.551-1.619
			c0-0.588,0.167-0.879,1.059-1.57c0.91-0.711,1.556-1.646,1.556-2.807c0-1.264-0.519-2.412-1.495-2.969h1.383L20.058,8.094z
			 M18.271,21.607c0.044,0.184,0.068,0.373,0.068,0.566c0,1.602-1.037,2.855-4.013,2.855c-2.117,0-3.646-1.334-3.646-2.938
			c0-1.57,1.792-2.928,3.91-2.904c0.492,0.006,0.954,0.086,1.371,0.221C17.111,20.203,18.037,20.699,18.271,21.607z M14.882,15.385
			c-1.422-0.045-2.771-1.342-3.015-3.199c-0.248-1.859,0.706-3.281,2.126-3.238s2.635,1.566,2.88,3.426
			C17.118,14.23,16.301,15.426,14.882,15.385z"/>
		<polygon fill="#1B1B1B" points="24.127,10.758 24.127,8.334 22.91,8.334 22.91,10.758 20.481,10.758 20.481,11.967 22.91,11.967 
			22.91,14.391 24.127,14.391 24.127,11.967 26.559,11.967 26.559,10.758 		"/>
	</g>
</g>
</svg>
