<?xml version="1.0" encoding="utf-8"?>
<!-- Generator: Adobe Illustrator 13.0.0, SVG Export Plug-In . SVG Version: 6.00 Build 14948)  -->
<!DOCTYPE svg PUBLIC "-//W3C//DTD SVG 1.1//EN" "http://www.w3.org/Graphics/SVG/1.1/DTD/svg11.dtd">
<svg version="1.1" id="Layer_1" xmlns="http://www.w3.org/2000/svg" xmlns:xlink="http://www.w3.org/1999/xlink" x="0px" y="0px"
	 width="158px" height="82px" viewBox="0 0 158 82" enable-background="new 0 0 158 82" xml:space="preserve">
<path fill="#FFE600" d="M132.107,56.037l-7.459-0.998l-2.965-8.262l-4.121-0.51l-11.904-18.005l-21.771,22.32l-9.219-20
	l-5.142,1.623L48.915,0L38.492,29.236L21.215,48.101L0,82h158L132.107,56.037z M54.474,57.08V43.624L38.865,62.371l-3.105-8.584
	L25.431,77.801l-16.954,0.07l17.834-27.613l16.258-16.543l7.503-21.834v26.033l9.914-5.522L54.474,57.08z M103.389,60.168
	l-2.504-3.32L83.887,80.007l7.459-18.681L72.029,77.548l14.499-24.643l19.641-18.703l-5.467,12.901l6.486-2.135L103.389,60.168z"/>
</svg>
