<?xml version="1.0" encoding="utf-8"?>
<!-- Generator: Adobe Illustrator 13.0.0, SVG Export Plug-In . SVG Version: 6.00 Build 14948)  -->
<!DOCTYPE svg PUBLIC "-//W3C//DTD SVG 1.1//EN" "http://www.w3.org/Graphics/SVG/1.1/DTD/svg11.dtd">
<svg version="1.1" id="Layer_1" xmlns="http://www.w3.org/2000/svg" xmlns:xlink="http://www.w3.org/1999/xlink" x="0px" y="0px"
	 width="34px" height="34px" viewBox="0 0 34 34" enable-background="new 0 0 34 34" xml:space="preserve">
<g>
	<circle fill="#FFFFFF" cx="17" cy="17" r="17"/>
	<g>
		<path fill="#1B1B1B" d="M8.06,22.596c1.624,1.037,3.55,1.643,5.624,1.643c6.748,0,10.437-5.57,10.437-10.398
			c0-0.158-0.003-0.316-0.011-0.473c0.717-0.514,1.338-1.158,1.83-1.893c-0.656,0.293-1.363,0.486-2.105,0.574
			c0.756-0.449,1.338-1.166,1.611-2.02c-0.708,0.418-1.494,0.723-2.33,0.885c-0.668-0.709-1.622-1.152-2.676-1.152
			c-2.027,0-3.668,1.635-3.668,3.654c0,0.287,0.031,0.564,0.094,0.832c-3.048-0.152-5.753-1.607-7.561-3.818
			c-0.314,0.541-0.496,1.168-0.496,1.838c0,1.268,0.647,2.387,1.632,3.041c-0.603-0.016-1.167-0.182-1.663-0.457v0.047
			c0,1.77,1.266,3.248,2.943,3.584c-0.306,0.084-0.631,0.129-0.966,0.129c-0.236,0-0.466-0.023-0.689-0.066
			c0.467,1.453,1.822,2.51,3.426,2.537c-1.255,0.98-2.835,1.564-4.555,1.564C8.638,22.646,8.348,22.631,8.06,22.596z"/>
	</g>
</g>
</svg>
